
 Workers
TV-Worker-1
...
State
Worker paused...
Current Runner
None
ETC:
...
Movies-Worker-1
...
State
Worker paused...
Current Runner
None
ETC:
...
TV-Worker-2
...
State
Worker paused...
Current Runner
None
ETC:
...
 Pending Tasks
This task list is empty
 Completed Tasks
the.last.samurai.2003.multi.proper.1080p.bluray.x264-fidelio.mkv
8 minutes ago
the.last.samurai.2003.multi.proper.1080p.bluray.x264-fidelio.mkv
25 minutes ago
the.last.samurai.2003.multi.proper.1080p.bluray.x264-fidelio.mkv
29 minutes ago
the.last.samurai.2003.multi.proper.1080p.bluray.x264-fidelio.mkv
35 minutes ago
we.own.this.city.s01e02.1080p.web.h264-ggez.mkv
37 minutes ago
the.last.samurai.2003.multi.proper.1080p.bluray.x264-fidelio.sample.mkv
47 minutes ago
the.last.samurai.2003.multi.proper.1080p.bluray.x264-fidelio.mkv
47 minutes ago
we.own.this.city.s01e02.1080p.web.h264-ggez.mkv
1 hour ago
© 2018-2022 by Josh Sunnex

Version: 0.2.3~b517463

 Completed Tasks
Search
Since
Before
the.last.samurai.2003.multi.proper.1080p.bluray.x264-fidelio.mkv	2022-11-06 18:51:22	
Success
the.last.samurai.2003.multi.proper.1080p.bluray.x264-fidelio.mkv	2022-11-06 18:33:52	
Success
the.last.samurai.2003.multi.proper.1080p.bluray.x264-fidelio.mkv	2022-11-06 18:30:12	
Failed
the.last.samurai.2003.multi.proper.1080p.bluray.x264-fidelio.mkv	2022-11-06 18:24:32	
Success
we.own.this.city.s01e02.1080p.web.h264-ggez.mkv	2022-11-06 18:21:50	
Success
the.last.samurai.2003.multi.proper.1080p.bluray.x264-fidelio.sample.mkv	2022-11-06 18:11:43	
Success
the.last.samurai.2003.multi.proper.1080p.bluray.x264-fidelio.mkv	2022-11-06 18:11:40	
Success
we.own.this.city.s01e02.1080p.web.h264-ggez.mkv	2022-11-06 17:54:15	
Success
Records per page:
15
1-8 of 8
 Completed Task Details

RUNNER:

Re-order subtitle streams by language [Pass #1]

Executing plugin runner... Please wait

Plugin runner requested for a command to be executed by Unmanic

COMMAND:

ffmpeg -hide_banner -loglevel info -i /data/downloads/test/The.Last.Samurai.2003.MULTi.PROPER.1080p.BluRay.x264-FiDELiO/the.last.samurai.2003.multi.proper.1080p.bluray.x264-fidelio.mkv -strict -2 -max_muxing_queue_size 4096 -c copy -map 0:v:0 -map 0:a:0 -map 0:a:1 -map 0:s:2 -map 0:s:3 -map 0:s:4 -map 0:s:0 -map 0:s:1 -y /tmp/unmanic/unmanic_file_conversion-ftbnj-1667778352/the.last.samurai.2003.multi.proper.1080p.bluray.x264-fidelio-ftbnj-1667778352-WORKING-1-1.mkv

LOG:

Input #0, matroska,webm, from '/data/downloads/test/The.Last.Samurai.2003.MULTi.PROPER.1080p.BluRay.x264-FiDELiO/the.last.samurai.2003.multi.proper.1080p.bluray.x264-fidelio.mkv':

   Metadata:

     creation_time : 2013-08-19T13:02:18.000000Z

     ENCODER : Lavf54.63.104

   Duration: 02:34:11.70, start: 0.000000, bitrate: 11167 kb/s

   Chapters:

     Chapter #0:0: start 0.000000, end 112.070000

       Metadata:

         title : 00:00:00.000

     Chapter #0:1: start 112.070000, end 338.630000

       Metadata:

         title : 00:01:52.070

     Chapter #0:2: start 338.630000, end 598.389000

       Metadata:

         title : 00:05:38.630

     Chapter #0:3: start 598.389000, end 793.584000

       Metadata:

         title : 00:09:58.389

     Chapter #0:4: start 793.584000, end 924.882000

       Metadata:

         title : 00:13:13.584

     Chapter #0:5: start 924.882000, end 1206.497000

       Metadata:

         title : 00:15:24.882

     Chapter #0:6: start 1206.497000, end 1374.832000

       Metadata:

         title : 00:20:06.497

     Chapter #0:7: start 1374.832000, end 1539.496000

       Metadata:

         title : 00:22:54.832

     Chapter #0:8: start 1539.496000, end 1872.996000

       Metadata:

         title : 00:25:39.496

     Chapter #0:9: start 1872.996000, end 2220.677000

       Metadata:

         title : 00:31:12.996

     Chapter #0:10: start 2220.677000, end 2460.917000

       Metadata:

         title : 00:37:00.677

     Chapter #0:11: start 2460.917000, end 2651.440000

       Metadata:

         title : 00:41:00.917

     Chapter #0:12: start 2651.440000, end 2976.098000

       Metadata:

         title : 00:44:11.440

     Chapter #0:13: start 2976.098000, end 3161.116000

       Metadata:

         title : 00:49:36.098

     Chapter #0:14: start 3161.116000, end 3408.363000

       Metadata:

         title : 00:52:41.116

     Chapter #0:15: start 3408.363000, end 3604.559000

       Metadata:

         title : 00:56:48.363

     Chapter #0:16: start 3604.559000, end 3805.260000

       Metadata:

         title : 01:00:04.559

     Chapter #0:17: start 3805.260000, end 4018.973000

       Metadata:

         title : 01:03:25.260

     Chapter #0:18: start 4018.973000, end 4303.257000

       Metadata:

         title : 01:06:58.973

     Chapter #0:19: start 4303.257000, end 4480.601000

       Metadata:

         title : 01:11:43.257

     Chapter #0:20: start 4480.601000, end 4735.689000

       Metadata:

         title : 01:14:40.601

     Chapter #0:21: start 4735.689000, end 4882.002000

       Metadata:

         title : 01:18:55.689

     Chapter #0:22: start 4882.002000, end 5061.014000

       Metadata:

         title : 01:21:22.002

     Chapter #0:23: start 5061.014000, end 5199.820000

       Metadata:

         title : 01:24:21.014

     Chapter #0:24: start 5199.820000, end 5428.381000

       Metadata:

         title : 01:26:39.820

     Chapter #0:25: start 5428.381000, end 5641.761000

       Metadata:

         title : 01:30:28.381

     Chapter #0:26: start 5641.761000, end 5836.456000

       Metadata:

         title : 01:34:01.761

     Chapter #0:27: start 5836.456000, end 6106.392000

       Metadata:

         title : 01:37:16.456

     Chapter #0:28: start 6106.392000, end 6295.915000

       Metadata:

         title : 01:41:46.392

     Chapter #0:29: start 6295.915000, end 6486.605000

       Metadata:

         title : 01:44:55.915

     Chapter #0:30: start 6486.605000, end 6746.365000

       Metadata:

         title : 01:48:06.605

     Chapter #0:31: start 6746.365000, end 6924.376000

       Metadata:

         title : 01:52:26.365

     Chapter #0:32: start 6924.376000, end 7203.655000

       Metadata:

         title : 01:55:24.376

     Chapter #0:33: start 7203.655000, end 7584.535000

       Metadata:

         title : 02:00:03.655

     Chapter #0:34: start 7584.535000, end 7701.485000

       Metadata:

         title : 02:06:24.535

     Chapter #0:35: start 7701.485000, end 7846.797000

       Metadata:

         title : 02:08:21.485

     Chapter #0:36: start 7846.797000, end 7986.604000

       Metadata:

         title : 02:10:46.797

     Chapter #0:37: start 7986.604000, end 8197.314000

       Metadata:

         title : 02:13:06.604

     Chapter #0:38: start 8197.314000, end 8577.527000

       Metadata:

         title : 02:16:37.314

     Chapter #0:39: start 8577.527000, end 8671.288000

       Metadata:

         title : 02:22:57.527

     Chapter #0:40: start 8671.288000, end 9251.367000

       Metadata:

         title : 02:24:31.288

     Chapter #0:41: start 9251.367000, end 9251.701000

       Metadata:

         title : 02:34:11.367

   Stream #0:0: Video: h264 (High), yuv420p(progressive), 1920x792 [SAR 1:1 DAR 80:33], 23.98 fps, 23.98 tbr, 1k tbn, 47.95 tbc (default)

   Stream #0:1(fre): Audio: ac3, 48000 Hz, 5.1(side), fltp, 640 kb/s (default)

     Metadata:

       title : French audio

   Stream #0:2(eng): Audio: ac3, 48000 Hz, 5.1(side), fltp, 640 kb/s

     Metadata:

       title : English audio

   Stream #0:3(fre): Subtitle: subrip (default)

     Metadata:

       title : Forced French subtitles

   Stream #0:4(fre): Subtitle: subrip

     Metadata:

       title : French subtitles

   Stream #0:5(eng): Subtitle: subrip

     Metadata:

       title : Forced English subtitles

   Stream #0:6(eng): Subtitle: subrip

     Metadata:

       title : English subtitles

   Stream #0:7(eng): Subtitle: subrip

     Metadata:

       title : English SDH

Output #0, matroska, to '/tmp/unmanic/unmanic_file_conversion-ftbnj-1667778352/the.last.samurai.2003.multi.proper.1080p.bluray.x264-fidelio-ftbnj-1667778352-WORKING-1-1.mkv':

   Metadata:

     encoder : Lavf58.76.100

   Chapters:

     Chapter #0:0: start 0.000000, end 112.070000

       Metadata:

         title : 00:00:00.000

     Chapter #0:1: start 112.070000, end 338.630000

       Metadata:

         title : 00:01:52.070

     Chapter #0:2: start 338.630000, end 598.389000

       Metadata:

         title : 00:05:38.630

     Chapter #0:3: start 598.389000, end 793.584000

       Metadata:

         title : 00:09:58.389

     Chapter #0:4: start 793.584000, end 924.882000

       Metadata:

         title : 00:13:13.584

     Chapter #0:5: start 924.882000, end 1206.497000

       Metadata:

         title : 00:15:24.882

     Chapter #0:6: start 1206.497000, end 1374.832000

       Metadata:

         title : 00:20:06.497

     Chapter #0:7: start 1374.832000, end 1539.496000

       Metadata:

         title : 00:22:54.832

     Chapter #0:8: start 1539.496000, end 1872.996000

       Metadata:

         title : 00:25:39.496

     Chapter #0:9: start 1872.996000, end 2220.677000

       Metadata:

         title : 00:31:12.996

     Chapter #0:10: start 2220.677000, end 2460.917000

       Metadata:

         title : 00:37:00.677

     Chapter #0:11: start 2460.917000, end 2651.440000

       Metadata:

         title : 00:41:00.917

     Chapter #0:12: start 2651.440000, end 2976.098000

       Metadata:

         title : 00:44:11.440

     Chapter #0:13: start 2976.098000, end 3161.116000

       Metadata:

         title : 00:49:36.098

     Chapter #0:14: start 3161.116000, end 3408.363000

       Metadata:

         title : 00:52:41.116

     Chapter #0:15: start 3408.363000, end 3604.559000

       Metadata:

         title : 00:56:48.363

     Chapter #0:16: start 3604.559000, end 3805.260000

       Metadata:

         title : 01:00:04.559

     Chapter #0:17: start 3805.260000, end 4018.973000

       Metadata:

         title : 01:03:25.260

     Chapter #0:18: start 4018.973000, end 4303.257000

       Metadata:

         title : 01:06:58.973

     Chapter #0:19: start 4303.257000, end 4480.601000

       Metadata:

         title : 01:11:43.257

     Chapter #0:20: start 4480.601000, end 4735.689000

       Metadata:

         title : 01:14:40.601

     Chapter #0:21: start 4735.689000, end 4882.002000

       Metadata:

         title : 01:18:55.689

     Chapter #0:22: start 4882.002000, end 5061.014000

       Metadata:

         title : 01:21:22.002

     Chapter #0:23: start 5061.014000, end 5199.820000

       Metadata:

         title : 01:24:21.014

     Chapter #0:24: start 5199.820000, end 5428.381000

       Metadata:

         title : 01:26:39.820

     Chapter #0:25: start 5428.381000, end 5641.761000

       Metadata:

         title : 01:30:28.381

     Chapter #0:26: start 5641.761000, end 5836.456000

       Metadata:

         title : 01:34:01.761

     Chapter #0:27: start 5836.456000, end 6106.392000

       Metadata:

         title : 01:37:16.456

     Chapter #0:28: start 6106.392000, end 6295.915000

       Metadata:

         title : 01:41:46.392

     Chapter #0:29: start 6295.915000, end 6486.605000

       Metadata:

         title : 01:44:55.915

     Chapter #0:30: start 6486.605000, end 6746.365000

       Metadata:

         title : 01:48:06.605

     Chapter #0:31: start 6746.365000, end 6924.376000

       Metadata:

         title : 01:52:26.365

     Chapter #0:32: start 6924.376000, end 7203.655000

       Metadata:

         title : 01:55:24.376

     Chapter #0:33: start 7203.655000, end 7584.535000

       Metadata:

         title : 02:00:03.655

     Chapter #0:34: start 7584.535000, end 7701.485000

       Metadata:

         title : 02:06:24.535

     Chapter #0:35: start 7701.485000, end 7846.797000

       Metadata:

         title : 02:08:21.485

     Chapter #0:36: start 7846.797000, end 7986.604000

       Metadata:

         title : 02:10:46.797

     Chapter #0:37: start 7986.604000, end 8197.314000

       Metadata:

         title : 02:13:06.604

     Chapter #0:38: start 8197.314000, end 8577.527000

       Metadata:

         title : 02:16:37.314

     Chapter #0:39: start 8577.527000, end 8671.288000

       Metadata:

         title : 02:22:57.527

     Chapter #0:40: start 8671.288000, end 9251.367000

       Metadata:

         title : 02:24:31.288

     Chapter #0:41: start 9251.367000, end 9251.701000

       Metadata:

         title : 02:34:11.367

   Stream #0:0: Video: h264 (High) (H264 / 0x34363248), yuv420p(progressive), 1920x792 [SAR 1:1 DAR 80:33], q=2-31, 23.98 fps, 23.98 tbr, 1k tbn, 1k tbc (default)

   Stream #0:1(fre): Audio: ac3 ([0] [0][0] / 0x2000), 48000 Hz, 5.1(side), fltp, 640 kb/s (default)

     Metadata:

       title : French audio

   Stream #0:2(eng): Audio: ac3 ([0] [0][0] / 0x2000), 48000 Hz, 5.1(side), fltp, 640 kb/s

     Metadata:

       title : English audio

   Stream #0:3(eng): Subtitle: subrip

     Metadata:

       title : Forced English subtitles

   Stream #0:4(eng): Subtitle: subrip

     Metadata:

       title : English subtitles

   Stream #0:5(eng): Subtitle: subrip

     Metadata:

       title : English SDH

   Stream #0:6(fre): Subtitle: subrip (default)

     Metadata:

       title : Forced French subtitles

   Stream #0:7(fre): Subtitle: subrip

     Metadata:

       title : French subtitles

Stream mapping:

   Stream #0:0 -> #0:0 (copy)

   Stream #0:1 -> #0:1 (copy)

   Stream #0:2 -> #0:2 (copy)

   Stream #0:5 -> #0:3 (copy)

   Stream #0:6 -> #0:4 (copy)

   Stream #0:7 -> #0:5 (copy)

   Stream #0:3 -> #0:6 (copy)

   Stream #0:4 -> #0:7 (copy)

Press [q] to stop, [?] for help

frame= 0 fps=0.0 q=-1.0 size= 4kB time=00:00:00.00 bitrate=N/A speed= 0x

frame= 1434 fps=0.0 q=-1.0 size= 61440kB time=00:01:00.03 bitrate=8384.1kbits/s speed= 120x

frame= 3065 fps=3046 q=-1.0 size= 137728kB time=00:02:08.16 bitrate=8803.6kbits/s speed= 127x

frame= 4276 fps=2839 q=-1.0 size= 221184kB time=00:02:58.49 bitrate=10151.1kbits/s speed= 119x

frame= 5661 fps=2822 q=-1.0 size= 312832kB time=00:03:56.35 bitrate=10842.8kbits/s speed= 118x

frame= 7112 fps=2838 q=-1.0 size= 410880kB time=00:04:57.12 bitrate=11328.5kbits/s speed= 119x

frame= 7651 fps=2542 q=-1.0 size= 448512kB time=00:05:19.39 bitrate=11503.8kbits/s speed= 106x

frame= 9363 fps=2668 q=-1.0 size= 531456kB time=00:06:30.59 bitrate=11146.4kbits/s speed= 111x

frame=11529 fps=2864 q=-1.0 size= 608000kB time=00:08:01.08 bitrate=10353.1kbits/s speed= 119x

frame=13398 fps=2959 q=-1.0 size= 680960kB time=00:09:18.94 bitrate=9980.3kbits/s speed= 123x

frame=14674 fps=2917 q=-1.0 size= 746752kB time=00:10:12.28 bitrate=9991.0kbits/s speed= 122x

frame=15827 fps=2862 q=-1.0 size= 830720kB time=00:11:00.19 bitrate=10308.0kbits/s speed= 119x

frame=16962 fps=2810 q=-1.0 size= 916992kB time=00:11:47.58 bitrate=10616.4kbits/s speed= 117x

frame=18132 fps=2771 q=-1.0 size= 1000192kB time=00:12:36.64 bitrate=10828.9kbits/s speed= 116x

frame=19819 fps=2811 q=-1.0 size= 1104384kB time=00:13:46.78 bitrate=10942.5kbits/s speed= 117x

frame=20870 fps=2754 q=-1.0 size= 1153536kB time=00:14:30.59 bitrate=10854.4kbits/s speed= 115x

frame=21949 fps=2692 q=-1.0 size= 1212160kB time=00:15:15.64 bitrate=10844.8kbits/s speed= 112x

frame=22228 fps=2567 q=-1.0 size= 1224448kB time=00:15:27.13 bitrate=10819.0kbits/s speed= 107x

frame=22655 fps=2449 q=-1.0 size= 1257216kB time=00:15:45.12 bitrate=10897.1kbits/s speed= 102x

frame=22992 fps=2350 q=-1.0 size= 1275904kB time=00:15:59.07 bitrate=10898.2kbits/s speed= 98x

frame=23352 fps=2247 q=-1.0 size= 1296896kB time=00:16:14.14 bitrate=10906.2kbits/s speed=93.7x

frame=23577 fps=2153 q=-1.0 size= 1310976kB time=00:16:23.48 bitrate=10919.8kbits/s speed=89.8x

frame=23802 fps=2072 q=-1.0 size= 1325568kB time=00:16:32.89 bitrate=10936.7kbits/s speed=86.4x

frame=24090 fps=2009 q=-1.0 size= 1349120kB time=00:16:45.08 bitrate=10996.0kbits/s speed=83.8x

frame=24269 fps=1937 q=-1.0 size= 1357824kB time=00:16:52.25 bitrate=10988.6kbits/s speed=80.8x

frame=24504 fps=1880 q=-1.0 size= 1374976kB time=00:17:02.14 bitrate=11019.8kbits/s speed=78.4x

frame=24818 fps=1809 q=-1.0 size= 1395968kB time=00:17:15.29 bitrate=11045.9kbits/s speed=75.5x

frame=25037 fps=1755 q=-1.0 size= 1416192kB time=00:17:24.54 bitrate=11106.7kbits/s speed=73.2x

frame=25255 fps=1698 q=-1.0 size= 1426944kB time=00:17:33.60 bitrate=11094.8kbits/s speed=70.9x

frame=25459 fps=1651 q=-1.0 size= 1442816kB time=00:17:42.11 bitrate=11128.3kbits/s speed=68.9x

frame=25698 fps=1595 q=-1.0 size= 1456640kB time=00:17:52.03 bitrate=11131.0kbits/s speed=66.6x

frame=25978 fps=1564 q=-1.0 size= 1474560kB time=00:18:03.55 bitrate=11148.1kbits/s speed=65.2x

frame=27435 fps=1602 q=-1.0 size= 1553408kB time=00:19:04.28 bitrate=11120.9kbits/s speed=66.8x

frame=29076 fps=1650 q=-1.0 size= 1642240kB time=00:20:12.86 bitrate=11092.1kbits/s speed=68.8x

frame=30903 fps=1705 q=-1.0 size= 1733632kB time=00:21:29.21 bitrate=11015.9kbits/s speed=71.1x

frame=32289 fps=1732 q=-1.0 size= 1798400kB time=00:22:26.78 bitrate=10939.0kbits/s speed=72.2x

frame=33794 fps=1765 q=-1.0 size= 1886464kB time=00:23:29.60 bitrate=10963.3kbits/s speed=73.6x

frame=35280 fps=1796 q=-1.0 size= 1971968kB time=00:24:31.71 bitrate=10976.6kbits/s speed=74.9x

frame=36960 fps=1835 q=-1.0 size= 2064640kB time=00:25:41.53 bitrate=10971.9kbits/s speed=76.5x

frame=38447 fps=1862 q=-1.0 size= 2157568kB time=00:26:43.80 bitrate=11020.5kbits/s speed=77.7x

frame=39511 fps=1868 q=-1.0 size= 2237952kB time=00:27:28.16 bitrate=11123.5kbits/s speed=77.9x

frame=40789 fps=1883 q=-1.0 size= 2338560kB time=00:28:21.24 bitrate=11260.8kbits/s speed=78.5x

frame=41923 fps=1892 q=-1.0 size= 2424064kB time=00:29:08.76 bitrate=11355.4kbits/s speed=78.9x

frame=43419 fps=1916 q=-1.0 size= 2516736kB time=00:30:10.97 bitrate=11384.5kbits/s speed=79.9x

frame=43669 fps=1879 q=-1.0 size= 2526464kB time=00:30:21.37 bitrate=11363.3kbits/s speed=78.4x

frame=44734 fps=1883 q=-1.0 size= 2578432kB time=00:31:06.04 bitrate=11319.4kbits/s speed=78.5x

frame=45293 fps=1867 q=-1.0 size= 2617344kB time=00:31:29.34 bitrate=11348.5kbits/s speed=77.9x

frame=45900 fps=1848 q=-1.0 size= 2653440kB time=00:31:54.59 bitrate=11353.3kbits/s speed=77.1x

frame=46393 fps=1829 q=-1.0 size= 2693376kB time=00:32:15.10 bitrate=11402.0kbits/s speed=76.3x

frame=46752 fps=1807 q=-1.0 size= 2734080kB time=00:32:30.01 bitrate=11485.8kbits/s speed=75.4x

frame=47098 fps=1785 q=-1.0 size= 2753792kB time=00:32:44.57 bitrate=11482.9kbits/s speed=74.5x

frame=47412 fps=1754 q=-1.0 size= 2756352kB time=00:32:57.63 bitrate=11417.7kbits/s speed=73.2x

frame=47610 fps=1721 q=-1.0 size= 2767104kB time=00:33:05.88 bitrate=11414.6kbits/s speed=71.8x

frame=47844 fps=1697 q=-1.0 size= 2777344kB time=00:33:15.55 bitrate=11401.4kbits/s speed=70.8x

frame=48235 fps=1672 q=-1.0 size= 2800384kB time=00:33:32.00 bitrate=11402.0kbits/s speed=69.7x

frame=48574 fps=1651 q=-1.0 size= 2819328kB time=00:33:46.08 bitrate=11399.3kbits/s speed=68.8x

frame=48894 fps=1631 q=-1.0 size= 2832384kB time=00:33:59.52 bitrate=11376.6kbits/s speed= 68x

frame=49196 fps=1613 q=-1.0 size= 2840832kB time=00:34:11.87 bitrate=11341.9kbits/s speed=67.3x

frame=49560 fps=1594 q=-1.0 size= 2865408kB time=00:34:27.42 bitrate=11353.9kbits/s speed=66.5x

frame=50181 fps=1586 q=-1.0 size= 2887680kB time=00:34:53.31 bitrate=11300.7kbits/s speed=66.2x

frame=50644 fps=1573 q=-1.0 size= 2917888kB time=00:35:12.35 bitrate=11316.0kbits/s speed=65.6x

frame=51034 fps=1554 q=-1.0 size= 2936320kB time=00:35:28.70 bitrate=11300.0kbits/s speed=64.8x

frame=51339 fps=1537 q=-1.0 size= 2950144kB time=00:35:41.34 bitrate=11286.2kbits/s speed=64.1x

frame=51781 fps=1524 q=-1.0 size= 2965504kB time=00:35:59.87 bitrate=11247.6kbits/s speed=63.6x

frame=52004 fps=1503 q=-1.0 size= 2972928kB time=00:36:09.05 bitrate=11228.0kbits/s speed=62.7x

frame=53038 fps=1511 q=-1.0 size= 3040768kB time=00:36:52.41 bitrate=11259.2kbits/s speed= 63x

frame=55098 fps=1548 q=-1.0 size= 3147264kB time=00:38:18.30 bitrate=11218.0kbits/s speed=64.6x

frame=56785 fps=1573 q=-1.0 size= 3239168kB time=00:39:28.67 bitrate=11202.6kbits/s speed=65.6x

frame=58131 fps=1587 q=-1.0 size= 3327488kB time=00:40:24.57 bitrate=11242.7kbits/s speed=66.2x

frame=59302 fps=1597 q=-1.0 size= 3412992kB time=00:41:13.60 bitrate=11303.1kbits/s speed=66.6x

frame=60868 fps=1616 q=-1.0 size= 3498240kB time=00:42:18.91 bitrate=11287.3kbits/s speed=67.4x

frame=62497 fps=1637 q=-1.0 size= 3582720kB time=00:43:26.75 bitrate=11259.1kbits/s speed=68.3x

frame=64402 fps=1665 q=-1.0 size= 3683072kB time=00:44:46.24 bitrate=11232.0kbits/s speed=69.5x

frame=66236 fps=1690 q=-1.0 size= 3748608kB time=00:46:02.72 bitrate=11115.3kbits/s speed=70.5x

frame=67049 fps=1689 q=-1.0 size= 3822848kB time=00:46:36.64 bitrate=11198.0kbits/s speed=70.5x

frame=68219 fps=1696 q=-1.0 size= 3921408kB time=00:47:25.56 bitrate=11289.2kbits/s speed=70.8x

frame=69062 fps=1696 q=-1.0 size= 3988992kB time=00:48:00.48 bitrate=11344.6kbits/s speed=70.7x

frame=69619 fps=1683 q=-1.0 size= 4039936kB time=00:48:23.74 bitrate=11397.4kbits/s speed=70.2x

frame=70320 fps=1674 q=-1.0 size= 4103936kB time=00:48:53.18 bitrate=11461.8kbits/s speed=69.8x

frame=70714 fps=1664 q=-1.0 size= 4136960kB time=00:49:09.63 bitrate=11489.6kbits/s speed=69.4x

frame=71187 fps=1653 q=-1.0 size= 4176896kB time=00:49:29.08 bitrate=11524.5kbits/s speed= 69x

frame=71712 fps=1646 q=-1.0 size= 4220160kB time=00:49:51.00 bitrate=11558.5kbits/s speed=68.7x

frame=72116 fps=1637 q=-1.0 size= 4250624kB time=00:50:08.09 bitrate=11575.8kbits/s speed=68.3x

frame=72890 fps=1634 q=-1.0 size= 4290048kB time=00:50:40.32 bitrate=11559.3kbits/s speed=68.1x

frame=73202 fps=1623 q=-1.0 size= 4309504kB time=00:50:53.28 bitrate=11562.5kbits/s speed=67.7x

frame=73558 fps=1607 q=-1.0 size= 4325632kB time=00:51:08.03 bitrate=11549.9kbits/s speed= 67x

frame=73787 fps=1594 q=-1.0 size= 4339712kB time=00:51:17.60 bitrate=11551.5kbits/s speed=66.5x

frame=74102 fps=1582 q=-1.0 size= 4354304kB time=00:51:30.81 bitrate=11540.8kbits/s speed= 66x

frame=74506 fps=1573 q=-1.0 size= 4371712kB time=00:51:47.71 bitrate=11523.9kbits/s speed=65.6x

frame=74941 fps=1560 q=-1.0 size= 4386560kB time=00:52:05.88 bitrate=11495.8kbits/s speed=65.1x

frame=75283 fps=1543 q=-1.0 size= 4400128kB time=00:52:20.00 bitrate=11479.6kbits/s speed=64.3x

frame=75711 fps=1532 q=-1.0 size= 4423936kB time=00:52:37.88 bitrate=11476.3kbits/s speed=63.9x

frame=75878 fps=1517 q=-1.0 size= 4431616kB time=00:52:44.96 bitrate=11470.5kbits/s speed=63.3x

frame=76076 fps=1505 q=-1.0 size= 4440320kB time=00:52:53.15 bitrate=11463.4kbits/s speed=62.8x

frame=76345 fps=1493 q=-1.0 size= 4460800kB time=00:53:04.38 bitrate=11475.6kbits/s speed=62.3x

frame=76492 fps=1478 q=-1.0 size= 4471040kB time=00:53:10.68 bitrate=11479.3kbits/s speed=61.6x

frame=76939 fps=1469 q=-1.0 size= 4501248kB time=00:53:29.02 bitrate=11490.8kbits/s speed=61.3x

frame=77237 fps=1459 q=-1.0 size= 4516608kB time=00:53:41.47 bitrate=11485.4kbits/s speed=60.9x

frame=77507 fps=1449 q=-1.0 size= 4534272kB time=00:53:52.80 bitrate=11490.0kbits/s speed=60.4x

frame=78389 fps=1452 q=-1.0 size= 4566272kB time=00:54:29.47 bitrate=11441.3kbits/s speed=60.6x

frame=79577 fps=1460 q=-1.0 size= 4626176kB time=00:55:19.13 bitrate=11417.9kbits/s speed=60.9x

frame=80794 fps=1469 q=-1.0 size= 4693760kB time=00:56:09.88 bitrate=11410.3kbits/s speed=61.3x

frame=81884 fps=1475 q=-1.0 size= 4736256kB time=00:56:55.36 bitrate=11360.3kbits/s speed=61.5x

frame=83102 fps=1483 q=-1.0 size= 4827392kB time=00:57:46.30 bitrate=11408.7kbits/s speed=61.9x

frame=83662 fps=1479 q=-1.0 size= 4853760kB time=00:58:09.50 bitrate=11394.7kbits/s speed=61.7x

frame=84116 fps=1474 q=-1.0 size= 4878592kB time=00:58:28.51 bitrate=11391.0kbits/s speed=61.5x

frame=86055 fps=1494 q=-1.0 size= 4966912kB time=00:59:49.47 bitrate=11335.6kbits/s speed=62.3x

frame=87685 fps=1509 q=-1.0 size= 5053440kB time=01:00:57.28 bitrate=11319.3kbits/s speed=62.9x

frame=89096 fps=1519 q=-1.0 size= 5129216kB time=01:01:56.09 bitrate=11307.2kbits/s speed=63.4x

frame=90801 fps=1535 q=-1.0 size= 5216000kB time=01:03:07.45 bitrate=11281.8kbits/s speed= 64x

frame=92523 fps=1550 q=-1.0 size= 5314304kB time=01:04:19.29 bitrate=11280.5kbits/s speed=64.7x

frame=93729 fps=1557 q=-1.0 size= 5411840kB time=01:05:09.47 bitrate=11340.1kbits/s speed= 65x

frame=94513 fps=1557 q=-1.0 size= 5440000kB time=01:05:42.01 bitrate=11305.0kbits/s speed=64.9x

frame=95740 fps=1564 q=-1.0 size= 5523968kB time=01:06:33.21 bitrate=11332.3kbits/s speed=65.3x

frame=96076 fps=1556 q=-1.0 size= 5551360kB time=01:06:47.52 bitrate=11347.9kbits/s speed=64.9x

frame=96731 fps=1554 q=-1.0 size= 5583872kB time=01:07:14.59 bitrate=11337.7kbits/s speed=64.8x

frame=97033 fps=1538 q=-1.0 size= 5618944kB time=01:07:27.29 bitrate=11373.1kbits/s speed=64.2x

frame=97256 fps=1526 q=-1.0 size= 5628160kB time=01:07:36.41 bitrate=11366.2kbits/s speed=63.7x

frame=97451 fps=1516 q=-1.0 size= 5644032kB time=01:07:44.60 bitrate=11375.2kbits/s speed=63.2x

frame=97565 fps=1506 q=-1.0 size= 5654528kB time=01:07:49.34 bitrate=11383.1kbits/s speed=62.8x

frame=97759 fps=1495 q=-1.0 size= 5669376kB time=01:07:57.47 bitrate=11390.3kbits/s speed=62.4x

frame=97908 fps=1484 q=-1.0 size= 5679616kB time=01:08:03.71 bitrate=11393.4kbits/s speed=61.9x

frame=98103 fps=1475 q=-1.0 size= 5695488kB time=01:08:11.80 bitrate=11402.6kbits/s speed=61.5x

frame=98344 fps=1468 q=-1.0 size= 5714176kB time=01:08:22.14 bitrate=11411.2kbits/s speed=61.2x

frame=98404 fps=1455 q=-1.0 size= 5719552kB time=01:08:24.38 bitrate=11415.7kbits/s speed=60.7x

frame=98631 fps=1445 q=-1.0 size= 5739776kB time=01:08:33.88 bitrate=11429.6kbits/s speed=60.3x

frame=98848 fps=1437 q=-1.0 size= 5744896kB time=01:08:42.88 bitrate=11414.9kbits/s speed=59.9x

frame=99169 fps=1431 q=-1.0 size= 5768192kB time=01:08:56.22 bitrate=11424.2kbits/s speed=59.7x

frame=99427 fps=1420 q=-1.0 size= 5792768kB time=01:09:07.00 bitrate=11443.0kbits/s speed=59.2x

frame=100357 fps=1423 q=-1.0 size= 5868544kB time=01:09:45.98 bitrate=11484.8kbits/s speed=59.4x

frame=101447 fps=1428 q=-1.0 size= 5955328kB time=01:10:31.58 bitrate=11529.0kbits/s speed=59.6x

frame=102849 fps=1438 q=-1.0 size= 6046720kB time=01:11:30.04 bitrate=11546.4kbits/s speed= 60x

frame=104788 fps=1455 q=-1.0 size= 6137344kB time=01:12:50.65 bitrate=11503.3kbits/s speed=60.7x

frame=106506 fps=1469 q=-1.0 size= 6210816kB time=01:14:02.24 bitrate=11453.5kbits/s speed=61.3x

frame=108059 fps=1480 q=-1.0 size= 6288384kB time=01:15:06.97 bitrate=11429.9kbits/s speed=61.7x

frame=109609 fps=1490 q=-1.0 size= 6353152kB time=01:16:11.84 bitrate=11383.8kbits/s speed=62.1x

frame=111201 fps=1501 q=-1.0 size= 6445568kB time=01:17:18.30 bitrate=11383.9kbits/s speed=62.6x

frame=112460 fps=1508 q=-1.0 size= 6521856kB time=01:18:10.81 bitrate=11389.7kbits/s speed=62.9x

frame=114291 fps=1522 q=-1.0 size= 6620160kB time=01:19:27.04 bitrate=11376.5kbits/s speed=63.5x

frame=114811 fps=1519 q=-1.0 size= 6647296kB time=01:19:48.86 bitrate=11371.1kbits/s speed=63.4x

frame=115243 fps=1513 q=-1.0 size= 6679040kB time=01:20:06.68 bitrate=11383.0kbits/s speed=63.1x

frame=115742 fps=1507 q=-1.0 size= 6701824kB time=01:20:27.45 bitrate=11372.7kbits/s speed=62.9x

frame=115994 fps=1499 q=-1.0 size= 6720512kB time=01:20:38.08 bitrate=11379.4kbits/s speed=62.5x

frame=116360 fps=1492 q=-1.0 size= 6734080kB time=01:20:53.24 bitrate=11366.7kbits/s speed=62.2x

frame=116787 fps=1488 q=-1.0 size= 6758912kB time=01:21:11.13 bitrate=11366.8kbits/s speed=62.1x

frame=117189 fps=1482 q=-1.0 size= 6766336kB time=01:21:27.93 bitrate=11340.1kbits/s speed=61.8x

frame=117577 fps=1475 q=-1.0 size= 6782464kB time=01:21:44.19 bitrate=11329.5kbits/s speed=61.5x

frame=118104 fps=1472 q=-1.0 size= 6804480kB time=01:22:05.95 bitrate=11316.0kbits/s speed=61.4x

frame=118513 fps=1465 q=-1.0 size= 6827008kB time=01:22:23.20 bitrate=11313.9kbits/s speed=61.1x

frame=118879 fps=1457 q=-1.0 size= 6839808kB time=01:22:38.40 bitrate=11300.4kbits/s speed=60.8x

frame=119345 fps=1454 q=-1.0 size= 6859008kB time=01:22:57.69 bitrate=11288.2kbits/s speed=60.6x

frame=119731 fps=1449 q=-1.0 size= 6875648kB time=01:23:13.95 bitrate=11278.7kbits/s speed=60.4x

frame=120186 fps=1445 q=-1.0 size= 6892800kB time=01:23:32.83 bitrate=11264.3kbits/s speed=60.3x

frame=120878 fps=1443 q=-1.0 size= 6920960kB time=01:24:01.72 bitrate=11245.5kbits/s speed=60.2x

frame=121728 fps=1444 q=-1.0 size= 6960896kB time=01:24:37.08 bitrate=11231.6kbits/s speed=60.2x

frame=122294 fps=1442 q=-1.0 size= 7009024kB time=01:25:00.89 bitrate=11256.4kbits/s speed=60.1x

frame=123456 fps=1447 q=-1.0 size= 7066112kB time=01:25:49.35 bitrate=11241.3kbits/s speed=60.4x

frame=124673 fps=1452 q=-1.0 size= 7151616kB time=01:26:40.06 bitrate=11266.4kbits/s speed=60.6x

frame=126265 fps=1462 q=-1.0 size= 7232256kB time=01:27:46.56 bitrate=11249.6kbits/s speed= 61x

frame=127906 fps=1472 q=-1.0 size= 7302656kB time=01:28:54.84 bitrate=11213.7kbits/s speed=61.4x

frame=128992 fps=1476 q=-1.0 size= 7374592kB time=01:29:40.16 bitrate=11228.8kbits/s speed=61.6x

frame=130385 fps=1484 q=-1.0 size= 7472896kB time=01:30:38.30 bitrate=11256.8kbits/s speed=61.9x

frame=131836 fps=1492 q=-1.0 size= 7550464kB time=01:31:38.91 bitrate=11248.3kbits/s speed=62.2x

frame=133936 fps=1507 q=-1.0 size= 7632384kB time=01:33:06.68 bitrate=11191.7kbits/s speed=62.8x

frame=135147 fps=1512 q=-1.0 size= 7706112kB time=01:33:56.80 bitrate=11199.3kbits/s speed= 63x

frame=136932 fps=1523 q=-1.0 size= 7790336kB time=01:35:11.29 bitrate=11174.1kbits/s speed=63.5x

frame=138376 fps=1530 q=-1.0 size= 7855616kB time=01:36:11.61 bitrate=11149.9kbits/s speed=63.8x

frame=139548 fps=1535 q=-1.0 size= 7931648kB time=01:37:00.44 bitrate=11163.4kbits/s speed= 64x

frame=139811 fps=1529 q=-1.0 size= 7947776kB time=01:37:11.45 bitrate=11165.0kbits/s speed=63.8x

frame=140565 fps=1526 q=-1.0 size= 8004864kB time=01:37:42.84 bitrate=11185.0kbits/s speed=63.7x

frame=141351 fps=1526 q=-1.0 size= 8043264kB time=01:38:15.74 bitrate=11175.9kbits/s speed=63.7x

frame=142120 fps=1525 q=-1.0 size= 8093184kB time=01:38:47.90 bitrate=11184.3kbits/s speed=63.6x

frame=142508 fps=1520 q=-1.0 size= 8100352kB time=01:39:03.80 bitrate=11164.2kbits/s speed=63.4x

frame=142813 fps=1515 q=-1.0 size= 8116224kB time=01:39:16.67 bitrate=11162.0kbits/s speed=63.2x

frame=143082 fps=1508 q=-1.0 size= 8130048kB time=01:39:27.90 bitrate=11159.9kbits/s speed=62.9x

frame=143330 fps=1499 q=-1.0 size= 8141568kB time=01:39:38.20 bitrate=11156.5kbits/s speed=62.5x

frame=143585 fps=1493 q=-1.0 size= 8160768kB time=01:39:48.86 bitrate=11162.9kbits/s speed=62.3x

frame=143795 fps=1486 q=-1.0 size= 8173824kB time=01:39:57.66 bitrate=11164.3kbits/s speed= 62x

frame=143973 fps=1479 q=-1.0 size= 8184320kB time=01:40:04.99 bitrate=11165.0kbits/s speed=61.7x

frame=144184 fps=1472 q=-1.0 size= 8193024kB time=01:40:13.76 bitrate=11160.6kbits/s speed=61.4x

frame=144335 fps=1466 q=-1.0 size= 8199680kB time=01:40:20.19 bitrate=11157.7kbits/s speed=61.1x

frame=144423 fps=1458 q=-1.0 size= 8210176kB time=01:40:23.80 bitrate=11165.3kbits/s speed=60.8x

frame=144582 fps=1452 q=-1.0 size= 8225536kB time=01:40:30.52 bitrate=11173.7kbits/s speed=60.6x

frame=144755 fps=1444 q=-1.0 size= 8235776kB time=01:40:37.53 bitrate=11174.7kbits/s speed=60.2x

frame=144891 fps=1437 q=-1.0 size= 8253440kB time=01:40:43.16 bitrate=11188.2kbits/s speed= 60x

frame=145099 fps=1431 q=-1.0 size= 8271104kB time=01:40:52.00 bitrate=11195.8kbits/s speed=59.7x

frame=145259 fps=1425 q=-1.0 size= 8286464kB time=01:40:58.49 bitrate=11204.5kbits/s speed=59.4x

frame=145504 fps=1420 q=-1.0 size= 8309248kB time=01:41:08.76 bitrate=11216.3kbits/s speed=59.2x

frame=146194 fps=1420 q=-1.0 size= 8364288kB time=01:41:37.63 bitrate=11237.2kbits/s speed=59.2x

frame=147632 fps=1427 q=-1.0 size= 8451840kB time=01:42:37.53 bitrate=11244.3kbits/s speed=59.5x

frame=149378 fps=1437 q=-1.0 size= 8543744kB time=01:43:50.40 bitrate=11233.7kbits/s speed=59.9x

frame=151183 fps=1447 q=-1.0 size= 8624384kB time=01:45:05.66 bitrate=11204.4kbits/s speed=60.4x

frame=152141 fps=1448 q=-1.0 size= 8672000kB time=01:45:45.53 bitrate=11195.4kbits/s speed=60.4x

frame=152361 fps=1443 q=-1.0 size= 8686080kB time=01:45:55.07 bitrate=11196.8kbits/s speed=60.2x

frame=152581 fps=1438 q=-1.0 size= 8699904kB time=01:46:03.93 bitrate=11199.0kbits/s speed= 60x

frame=152849 fps=1432 q=-1.0 size= 8716544kB time=01:46:15.13 bitrate=11200.7kbits/s speed=59.7x

frame=153103 fps=1427 q=-1.0 size= 8734464kB time=01:46:25.72 bitrate=11205.1kbits/s speed=59.5x

frame=153319 fps=1421 q=-1.0 size= 8747776kB time=01:46:34.97 bitrate=11205.9kbits/s speed=59.3x

frame=153928 fps=1420 q=-1.0 size= 8787712kB time=01:47:00.12 bitrate=11213.0kbits/s speed=59.2x

frame=154882 fps=1422 q=-1.0 size= 8848128kB time=01:47:39.90 bitrate=11220.6kbits/s speed=59.3x

frame=155999 fps=1425 q=-1.0 size= 8922368kB time=01:48:26.59 bitrate=11233.5kbits/s speed=59.4x

frame=158249 fps=1439 q=-1.0 size= 9018368kB time=01:50:00.54 bitrate=11192.8kbits/s speed= 60x

frame=159793 fps=1446 q=-1.0 size= 9096704kB time=01:51:04.96 bitrate=11180.9kbits/s speed=60.3x

frame=161651 fps=1456 q=-1.0 size= 9191936kB time=01:52:22.36 bitrate=11168.2kbits/s speed=60.7x

frame=162601 fps=1458 q=-1.0 size= 9255424kB time=01:53:01.92 bitrate=11179.8kbits/s speed=60.8x

frame=164090 fps=1465 q=-1.0 size= 9347584kB time=01:54:04.09 bitrate=11188.5kbits/s speed=61.1x

frame=165436 fps=1470 q=-1.0 size= 9438976kB time=01:55:00.32 bitrate=11205.9kbits/s speed=61.3x

frame=166647 fps=1475 q=-1.0 size= 9506304kB time=01:55:50.72 bitrate=11204.0kbits/s speed=61.5x

frame=167757 fps=1478 q=-1.0 size= 9573888kB time=01:56:37.05 bitrate=11208.9kbits/s speed=61.6x

frame=168398 fps=1477 q=-1.0 size= 9627136kB time=01:57:03.84 bitrate=11228.3kbits/s speed=61.6x

frame=168964 fps=1475 q=-1.0 size= 9673472kB time=01:57:27.23 bitrate=11244.9kbits/s speed=61.5x

frame=169472 fps=1472 q=-1.0 size= 9714944kB time=01:57:48.48 bitrate=11259.1kbits/s speed=61.4x

frame=170117 fps=1471 q=-1.0 size= 9763584kB time=01:58:15.32 bitrate=11272.7kbits/s speed=61.3x

frame=170314 fps=1465 q=-1.0 size= 9781504kB time=01:58:23.55 bitrate=11280.3kbits/s speed=61.1x

frame=170669 fps=1462 q=-1.0 size= 9813504kB time=01:58:38.43 bitrate=11293.5kbits/s speed= 61x

frame=171163 fps=1460 q=-1.0 size= 9848576kB time=01:58:58.94 bitrate=11301.3kbits/s speed=60.9x

frame=171311 fps=1454 q=-1.0 size= 9859584kB time=01:59:05.12 bitrate=11304.2kbits/s speed=60.6x

frame=171488 fps=1449 q=-1.0 size= 9873152kB time=01:59:12.51 bitrate=11308.0kbits/s speed=60.4x

frame=171617 fps=1442 q=-1.0 size= 9880064kB time=01:59:17.85 bitrate=11307.5kbits/s speed=60.1x

frame=171852 fps=1437 q=-1.0 size= 9901312kB time=01:59:27.68 bitrate=11316.3kbits/s speed=59.9x

frame=172089 fps=1432 q=-1.0 size= 9919488kB time=01:59:37.53 bitrate=11321.5kbits/s speed=59.7x

frame=172288 fps=1426 q=-1.0 size= 9930240kB time=01:59:45.85 bitrate=11320.6kbits/s speed=59.5x

frame=172443 fps=1419 q=-1.0 size= 9940992kB time=01:59:52.38 bitrate=11322.6kbits/s speed=59.2x

frame=172629 fps=1415 q=-1.0 size= 9961728kB time=02:00:00.25 bitrate=11333.8kbits/s speed= 59x

frame=172929 fps=1409 q=-1.0 size= 9986560kB time=02:00:12.76 bitrate=11342.4kbits/s speed=58.8x

frame=173202 fps=1402 q=-1.0 size=10000896kB time=02:00:24.12 bitrate=11340.8kbits/s speed=58.5x

frame=173480 fps=1399 q=-1.0 size=10028032kB time=02:00:35.84 bitrate=11353.2kbits/s speed=58.3x

frame=173666 fps=1395 q=-1.0 size=10043392kB time=02:00:43.36 bitrate=11358.7kbits/s speed=58.2x

frame=173853 fps=1390 q=-1.0 size=10059520kB time=02:00:51.36 bitrate=11364.4kbits/s speed= 58x

frame=174022 fps=1386 q=-1.0 size=10070016kB time=02:00:58.20 bitrate=11365.6kbits/s speed=57.8x

frame=174205 fps=1379 q=-1.0 size=10084864kB time=02:01:06.20 bitrate=11369.8kbits/s speed=57.5x

frame=174420 fps=1375 q=-1.0 size=10100480kB time=02:01:14.78 bitrate=11374.0kbits/s speed=57.3x

frame=174833 fps=1372 q=-1.0 size=10134784kB time=02:01:32.00 bitrate=11385.6kbits/s speed=57.2x

frame=175637 fps=1373 q=-1.0 size=10214912kB time=02:02:05.72 bitrate=11422.8kbits/s speed=57.3x

frame=176551 fps=1375 q=-1.0 size=10301952kB time=02:02:43.90 bitrate=11460.4kbits/s speed=57.4x

frame=177549 fps=1378 q=-1.0 size=10385664kB time=02:03:25.44 bitrate=11488.8kbits/s speed=57.5x

frame=178449 fps=1379 q=-1.0 size=10474752kB time=02:04:02.91 bitrate=11529.0kbits/s speed=57.5x

frame=179163 fps=1379 q=-1.0 size=10542080kB time=02:04:32.67 bitrate=11556.9kbits/s speed=57.5x

frame=179873 fps=1379 q=-1.0 size=10614784kB time=02:05:02.27 bitrate=11590.7kbits/s speed=57.5x

frame=180723 fps=1380 q=-1.0 size=10691840kB time=02:05:37.72 bitrate=11619.9kbits/s speed=57.6x

frame=182079 fps=1385 q=-1.0 size=10771968kB time=02:06:34.43 bitrate=11619.6kbits/s speed=57.8x

frame=183502 fps=1391 q=-1.0 size=10862848kB time=02:07:33.63 bitrate=11627.0kbits/s speed= 58x

frame=184771 fps=1395 q=-1.0 size=10933248kB time=02:08:26.65 bitrate=11621.8kbits/s speed=58.2x

frame=185902 fps=1398 q=-1.0 size=11019520kB time=02:09:13.79 bitrate=11642.3kbits/s speed=58.3x

frame=186374 fps=1396 q=-1.0 size=11061760kB time=02:09:33.47 bitrate=11657.3kbits/s speed=58.2x

frame=187161 fps=1397 q=-1.0 size=11136512kB time=02:10:06.43 bitrate=11686.6kbits/s speed=58.3x

frame=187383 fps=1392 q=-1.0 size=11154432kB time=02:10:15.55 bitrate=11691.7kbits/s speed=58.1x

frame=188058 fps=1392 q=-1.0 size=11220736kB time=02:10:43.74 bitrate=11718.9kbits/s speed= 58x

frame=188305 fps=1388 q=-1.0 size=11259392kB time=02:10:54.01 bitrate=11743.9kbits/s speed=57.9x

frame=188861 fps=1386 q=-1.0 size=11293952kB time=02:11:17.12 bitrate=11745.4kbits/s speed=57.8x

frame=189079 fps=1382 q=-1.0 size=11299072kB time=02:11:26.30 bitrate=11737.1kbits/s speed=57.6x

frame=189333 fps=1379 q=-1.0 size=11323136kB time=02:11:36.80 bitrate=11746.4kbits/s speed=57.5x

frame=189578 fps=1374 q=-1.0 size=11345152kB time=02:11:47.04 bitrate=11754.0kbits/s speed=57.3x

frame=189876 fps=1370 q=-1.0 size=11365120kB time=02:11:59.45 bitrate=11756.2kbits/s speed=57.2x

frame=190168 fps=1367 q=-1.0 size=11383552kB time=02:12:11.68 bitrate=11757.2kbits/s speed= 57x

frame=190385 fps=1361 q=-1.0 size=11401728kB time=02:12:20.67 bitrate=11762.6kbits/s speed=56.8x

frame=190598 fps=1357 q=-1.0 size=11413504kB time=02:12:29.82 bitrate=11761.2kbits/s speed=56.6x

frame=190758 fps=1353 q=-1.0 size=11424000kB time=02:12:36.38 bitrate=11762.3kbits/s speed=56.4x

frame=191010 fps=1350 q=-1.0 size=11451904kB time=02:12:46.94 bitrate=11775.4kbits/s speed=56.3x

frame=191223 fps=1346 q=-1.0 size=11462656kB time=02:12:55.77 bitrate=11773.4kbits/s speed=56.1x

frame=191491 fps=1341 q=-1.0 size=11483904kB time=02:13:06.88 bitrate=11778.8kbits/s speed= 56x

frame=191709 fps=1338 q=-1.0 size=11501056kB time=02:13:16.00 bitrate=11783.0kbits/s speed=55.8x

frame=192044 fps=1334 q=-1.0 size=11508736kB time=02:13:29.88 bitrate=11770.4kbits/s speed=55.6x

frame=192300 fps=1331 q=-1.0 size=11520768kB time=02:13:40.60 bitrate=11767.0kbits/s speed=55.5x

frame=192566 fps=1327 q=-1.0 size=11533312kB time=02:13:51.80 bitrate=11763.3kbits/s speed=55.3x

frame=192867 fps=1324 q=-1.0 size=11552512kB time=02:14:04.28 bitrate=11764.6kbits/s speed=55.2x

frame=193211 fps=1320 q=-1.0 size=11565312kB time=02:14:18.52 bitrate=11756.9kbits/s speed=55.1x

frame=193482 fps=1316 q=-1.0 size=11579904kB time=02:14:29.82 bitrate=11755.2kbits/s speed=54.9x

frame=193802 fps=1313 q=-1.0 size=11598336kB time=02:14:43.29 bitrate=11754.3kbits/s speed=54.8x

frame=194239 fps=1312 q=-1.0 size=11622912kB time=02:15:01.47 bitrate=11752.8kbits/s speed=54.7x

frame=194824 fps=1311 q=-1.0 size=11659008kB time=02:15:26.01 bitrate=11753.7kbits/s speed=54.7x

frame=195589 fps=1312 q=-1.0 size=11701248kB time=02:15:57.85 bitrate=11750.2kbits/s speed=54.7x

frame=196938 fps=1316 q=-1.0 size=11770368kB time=02:16:54.08 bitrate=11738.7kbits/s speed=54.9x

frame=198862 fps=1325 q=-1.0 size=11855872kB time=02:18:14.33 bitrate=11709.6kbits/s speed=55.3x

frame=200123 fps=1329 q=-1.0 size=11923712kB time=02:19:06.88 bitrate=11702.5kbits/s speed=55.4x

frame=201729 fps=1335 q=-1.0 size=11993856kB time=02:20:14.04 bitrate=11677.3kbits/s speed=55.7x

frame=203044 fps=1339 q=-1.0 size=12072192kB time=02:21:08.67 bitrate=11677.8kbits/s speed=55.8x

frame=204383 fps=1343 q=-1.0 size=12167936kB time=02:22:04.67 bitrate=11693.1kbits/s speed= 56x

frame=205601 fps=1347 q=-1.0 size=12219392kB time=02:22:55.39 bitrate=11673.1kbits/s speed=56.2x

frame=207054 fps=1352 q=-1.0 size=12303872kB time=02:23:56.06 bitrate=11671.2kbits/s speed=56.4x

frame=207689 fps=1351 q=-1.0 size=12349184kB time=02:24:22.56 bitrate=11678.4kbits/s speed=56.4x

frame=212430 fps=1377 q=-1.0 size=12411136kB time=02:27:40.25 bitrate=11475.1kbits/s speed=57.4x

frame=215302 fps=1391 q=-1.0 size=12472064kB time=02:29:40.06 bitrate=11377.6kbits/s speed= 58x

frame=219425 fps=1413 q=-1.0 size=12557056kB time=02:32:31.90 bitrate=11240.0kbits/s speed= 59x

frame=221817 fps=1426 q=-1.0 Lsize=12615643kB time=02:34:11.61 bitrate=11170.7kbits/s speed=59.5x

video:11164076kB audio:1445570kB subtitle:107kB other streams:0kB global headers:0kB muxing overhead: 0.046713%


RUNNER:

Re-order audio streams by language [Pass #1]

Executing plugin runner... Please wait

Plugin runner requested for a command to be executed by Unmanic

COMMAND:

ffmpeg -hide_banner -loglevel info -i /tmp/unmanic/unmanic_file_conversion-ftbnj-1667778352/the.last.samurai.2003.multi.proper.1080p.bluray.x264-fidelio-ftbnj-1667778352-WORKING-1-1.mkv -strict -2 -max_muxing_queue_size 4096 -c copy -map 0:v:0 -map 0:a:1 -disposition:a:1 default -map 0:a:0 -disposition:a:0 0 -map 0:s:0 -map 0:s:1 -map 0:s:2 -map 0:s:3 -map 0:s:4 -y /tmp/unmanic/unmanic_file_conversion-ftbnj-1667778352/the.last.samurai.2003.multi.proper.1080p.bluray.x264-fidelio-ftbnj-1667778352-WORKING-2-1.mkv

LOG:

Input #0, matroska,webm, from '/tmp/unmanic/unmanic_file_conversion-ftbnj-1667778352/the.last.samurai.2003.multi.proper.1080p.bluray.x264-fidelio-ftbnj-1667778352-WORKING-1-1.mkv':

   Metadata:

     ENCODER : Lavf58.76.100

   Duration: 02:34:11.70, start: 0.000000, bitrate: 11170 kb/s

   Chapters:

     Chapter #0:0: start 0.000000, end 112.070000

       Metadata:

         title : 00:00:00.000

     Chapter #0:1: start 112.070000, end 338.630000

       Metadata:

         title : 00:01:52.070

     Chapter #0:2: start 338.630000, end 598.389000

       Metadata:

         title : 00:05:38.630

     Chapter #0:3: start 598.389000, end 793.584000

       Metadata:

         title : 00:09:58.389

     Chapter #0:4: start 793.584000, end 924.882000

       Metadata:

         title : 00:13:13.584

     Chapter #0:5: start 924.882000, end 1206.497000

       Metadata:

         title : 00:15:24.882

     Chapter #0:6: start 1206.497000, end 1374.832000

       Metadata:

         title : 00:20:06.497

     Chapter #0:7: start 1374.832000, end 1539.496000

       Metadata:

         title : 00:22:54.832

     Chapter #0:8: start 1539.496000, end 1872.996000

       Metadata:

         title : 00:25:39.496

     Chapter #0:9: start 1872.996000, end 2220.677000

       Metadata:

         title : 00:31:12.996

     Chapter #0:10: start 2220.677000, end 2460.917000

       Metadata:

         title : 00:37:00.677

     Chapter #0:11: start 2460.917000, end 2651.440000

       Metadata:

         title : 00:41:00.917

     Chapter #0:12: start 2651.440000, end 2976.098000

       Metadata:

         title : 00:44:11.440

     Chapter #0:13: start 2976.098000, end 3161.116000

       Metadata:

         title : 00:49:36.098

     Chapter #0:14: start 3161.116000, end 3408.363000

       Metadata:

         title : 00:52:41.116

     Chapter #0:15: start 3408.363000, end 3604.559000

       Metadata:

         title : 00:56:48.363

     Chapter #0:16: start 3604.559000, end 3805.260000

       Metadata:

         title : 01:00:04.559

     Chapter #0:17: start 3805.260000, end 4018.973000

       Metadata:

         title : 01:03:25.260

     Chapter #0:18: start 4018.973000, end 4303.257000

       Metadata:

         title : 01:06:58.973

     Chapter #0:19: start 4303.257000, end 4480.601000

       Metadata:

         title : 01:11:43.257

     Chapter #0:20: start 4480.601000, end 4735.689000

       Metadata:

         title : 01:14:40.601

     Chapter #0:21: start 4735.689000, end 4882.002000

       Metadata:

         title : 01:18:55.689

     Chapter #0:22: start 4882.002000, end 5061.014000

       Metadata:

         title : 01:21:22.002

     Chapter #0:23: start 5061.014000, end 5199.820000

       Metadata:

         title : 01:24:21.014

     Chapter #0:24: start 5199.820000, end 5428.381000

       Metadata:

         title : 01:26:39.820

     Chapter #0:25: start 5428.381000, end 5641.761000

       Metadata:

         title : 01:30:28.381

     Chapter #0:26: start 5641.761000, end 5836.456000

       Metadata:

         title : 01:34:01.761

     Chapter #0:27: start 5836.456000, end 6106.392000

       Metadata:

         title : 01:37:16.456

     Chapter #0:28: start 6106.392000, end 6295.915000

       Metadata:

         title : 01:41:46.392

     Chapter #0:29: start 6295.915000, end 6486.605000

       Metadata:

         title : 01:44:55.915

     Chapter #0:30: start 6486.605000, end 6746.365000

       Metadata:

         title : 01:48:06.605

     Chapter #0:31: start 6746.365000, end 6924.376000

       Metadata:

         title : 01:52:26.365

     Chapter #0:32: start 6924.376000, end 7203.655000

       Metadata:

         title : 01:55:24.376

     Chapter #0:33: start 7203.655000, end 7584.535000

       Metadata:

         title : 02:00:03.655

     Chapter #0:34: start 7584.535000, end 7701.485000

       Metadata:

         title : 02:06:24.535

     Chapter #0:35: start 7701.485000, end 7846.797000

       Metadata:

         title : 02:08:21.485

     Chapter #0:36: start 7846.797000, end 7986.604000

       Metadata:

         title : 02:10:46.797

     Chapter #0:37: start 7986.604000, end 8197.314000

       Metadata:

         title : 02:13:06.604

     Chapter #0:38: start 8197.314000, end 8577.527000

       Metadata:

         title : 02:16:37.314

     Chapter #0:39: start 8577.527000, end 8671.288000

       Metadata:

         title : 02:22:57.527

     Chapter #0:40: start 8671.288000, end 9251.367000

       Metadata:

         title : 02:24:31.288

     Chapter #0:41: start 9251.367000, end 9251.701000

       Metadata:

         title : 02:34:11.367

   Stream #0:0: Video: h264 (High), yuv420p(progressive), 1920x792 [SAR 1:1 DAR 80:33], 23.98 fps, 23.98 tbr, 1k tbn, 47.95 tbc (default)

     Metadata:

       DURATION : 02:34:11.700000000

   Stream #0:1(fre): Audio: ac3, 48000 Hz, 5.1(side), fltp, 640 kb/s (default)

     Metadata:

       title : French audio

       DURATION : 02:34:11.648000000

   Stream #0:2(eng): Audio: ac3, 48000 Hz, 5.1(side), fltp, 640 kb/s

     Metadata:

       title : English audio

       DURATION : 02:34:11.648000000

   Stream #0:3(eng): Subtitle: subrip

     Metadata:

       title : Forced English subtitles

       DURATION : 02:22:05.810000000

   Stream #0:4(eng): Subtitle: subrip

     Metadata:

       title : English subtitles

       DURATION : 02:34:09.116000000

   Stream #0:5(eng): Subtitle: subrip

     Metadata:

       title : English SDH

       DURATION : 02:34:09.116000000

   Stream #0:6(fre): Subtitle: subrip (default)

     Metadata:

       title : Forced French subtitles

       DURATION : 02:34:09.116000000

   Stream #0:7(fre): Subtitle: subrip

     Metadata:

       title : French subtitles

       DURATION : 02:34:09.116000000

Output #0, matroska, to '/tmp/unmanic/unmanic_file_conversion-ftbnj-1667778352/the.last.samurai.2003.multi.proper.1080p.bluray.x264-fidelio-ftbnj-1667778352-WORKING-2-1.mkv':

   Metadata:

     encoder : Lavf58.76.100

   Chapters:

     Chapter #0:0: start 0.000000, end 112.070000

       Metadata:

         title : 00:00:00.000

     Chapter #0:1: start 112.070000, end 338.630000

       Metadata:

         title : 00:01:52.070

     Chapter #0:2: start 338.630000, end 598.389000

       Metadata:

         title : 00:05:38.630

     Chapter #0:3: start 598.389000, end 793.584000

       Metadata:

         title : 00:09:58.389

     Chapter #0:4: start 793.584000, end 924.882000

       Metadata:

         title : 00:13:13.584

     Chapter #0:5: start 924.882000, end 1206.497000

       Metadata:

         title : 00:15:24.882

     Chapter #0:6: start 1206.497000, end 1374.832000

       Metadata:

         title : 00:20:06.497

     Chapter #0:7: start 1374.832000, end 1539.496000

       Metadata:

         title : 00:22:54.832

     Chapter #0:8: start 1539.496000, end 1872.996000

       Metadata:

         title : 00:25:39.496

     Chapter #0:9: start 1872.996000, end 2220.677000

       Metadata:

         title : 00:31:12.996

     Chapter #0:10: start 2220.677000, end 2460.917000

       Metadata:

         title : 00:37:00.677

     Chapter #0:11: start 2460.917000, end 2651.440000

       Metadata:

         title : 00:41:00.917

     Chapter #0:12: start 2651.440000, end 2976.098000

       Metadata:

         title : 00:44:11.440

     Chapter #0:13: start 2976.098000, end 3161.116000

       Metadata:

         title : 00:49:36.098

     Chapter #0:14: start 3161.116000, end 3408.363000

       Metadata:

         title : 00:52:41.116

     Chapter #0:15: start 3408.363000, end 3604.559000

       Metadata:

         title : 00:56:48.363

     Chapter #0:16: start 3604.559000, end 3805.260000

       Metadata:

         title : 01:00:04.559

     Chapter #0:17: start 3805.260000, end 4018.973000

       Metadata:

         title : 01:03:25.260

     Chapter #0:18: start 4018.973000, end 4303.257000

       Metadata:

         title : 01:06:58.973

     Chapter #0:19: start 4303.257000, end 4480.601000

       Metadata:

         title : 01:11:43.257

     Chapter #0:20: start 4480.601000, end 4735.689000

       Metadata:

         title : 01:14:40.601

     Chapter #0:21: start 4735.689000, end 4882.002000

       Metadata:

         title : 01:18:55.689

     Chapter #0:22: start 4882.002000, end 5061.014000

       Metadata:

         title : 01:21:22.002

     Chapter #0:23: start 5061.014000, end 5199.820000

       Metadata:

         title : 01:24:21.014

     Chapter #0:24: start 5199.820000, end 5428.381000

       Metadata:

         title : 01:26:39.820

     Chapter #0:25: start 5428.381000, end 5641.761000

       Metadata:

         title : 01:30:28.381

     Chapter #0:26: start 5641.761000, end 5836.456000

       Metadata:

         title : 01:34:01.761

     Chapter #0:27: start 5836.456000, end 6106.392000

       Metadata:

         title : 01:37:16.456

     Chapter #0:28: start 6106.392000, end 6295.915000

       Metadata:

         title : 01:41:46.392

     Chapter #0:29: start 6295.915000, end 6486.605000

       Metadata:

         title : 01:44:55.915

     Chapter #0:30: start 6486.605000, end 6746.365000

       Metadata:

         title : 01:48:06.605

     Chapter #0:31: start 6746.365000, end 6924.376000

       Metadata:

         title : 01:52:26.365

     Chapter #0:32: start 6924.376000, end 7203.655000

       Metadata:

         title : 01:55:24.376

     Chapter #0:33: start 7203.655000, end 7584.535000

       Metadata:

         title : 02:00:03.655

     Chapter #0:34: start 7584.535000, end 7701.485000

       Metadata:

         title : 02:06:24.535

     Chapter #0:35: start 7701.485000, end 7846.797000

       Metadata:

         title : 02:08:21.485

     Chapter #0:36: start 7846.797000, end 7986.604000

       Metadata:

         title : 02:10:46.797

     Chapter #0:37: start 7986.604000, end 8197.314000

       Metadata:

         title : 02:13:06.604

     Chapter #0:38: start 8197.314000, end 8577.527000

       Metadata:

         title : 02:16:37.314

     Chapter #0:39: start 8577.527000, end 8671.288000

       Metadata:

         title : 02:22:57.527

     Chapter #0:40: start 8671.288000, end 9251.367000

       Metadata:

         title : 02:24:31.288

     Chapter #0:41: start 9251.367000, end 9251.701000

       Metadata:

         title : 02:34:11.367

   Stream #0:0: Video: h264 (High) (H264 / 0x34363248), yuv420p(progressive), 1920x792 [SAR 1:1 DAR 80:33], q=2-31, 23.98 fps, 23.98 tbr, 1k tbn, 1k tbc (default)

     Metadata:

       DURATION : 02:34:11.700000000

   Stream #0:1(eng): Audio: ac3 ([0] [0][0] / 0x2000), 48000 Hz, 5.1(side), fltp, 640 kb/s

     Metadata:

       title : English audio

       DURATION : 02:34:11.648000000

   Stream #0:2(fre): Audio: ac3 ([0] [0][0] / 0x2000), 48000 Hz, 5.1(side), fltp, 640 kb/s (default)

     Metadata:

       title : French audio

       DURATION : 02:34:11.648000000

   Stream #0:3(eng): Subtitle: subrip

     Metadata:

       title : Forced English subtitles

       DURATION : 02:22:05.810000000

   Stream #0:4(eng): Subtitle: subrip

     Metadata:

       title : English subtitles

       DURATION : 02:34:09.116000000

   Stream #0:5(eng): Subtitle: subrip

     Metadata:

       title : English SDH

       DURATION : 02:34:09.116000000

   Stream #0:6(fre): Subtitle: subrip (default)

     Metadata:

       title : Forced French subtitles

       DURATION : 02:34:09.116000000

   Stream #0:7(fre): Subtitle: subrip

     Metadata:

       title : French subtitles

       DURATION : 02:34:09.116000000

Stream mapping:

   Stream #0:0 -> #0:0 (copy)

   Stream #0:2 -> #0:1 (copy)

   Stream #0:1 -> #0:2 (copy)

   Stream #0:3 -> #0:3 (copy)

   Stream #0:4 -> #0:4 (copy)

   Stream #0:5 -> #0:5 (copy)

   Stream #0:6 -> #0:6 (copy)

   Stream #0:7 -> #0:7 (copy)

Press [q] to stop, [?] for help

frame= 1 fps=0.0 q=-1.0 size= 4kB time=00:00:00.00 bitrate=32680.0kbits/s speed=N/A

frame= 776 fps=0.0 q=-1.0 size= 19968kB time=00:00:32.32 bitrate=5060.4kbits/s speed=61.7x

frame= 1152 fps=1115 q=-1.0 size= 41216kB time=00:00:48.00 bitrate=7033.2kbits/s speed=46.5x

frame= 1972 fps=1132 q=-1.0 size= 101632kB time=00:01:22.20 bitrate=10127.6kbits/s speed=47.2x

frame= 2442 fps=1089 q=-1.0 size= 124160kB time=00:01:41.81 bitrate=9990.3kbits/s speed=45.4x

frame= 3156 fps=1150 q=-1.0 size= 142080kB time=00:02:11.59 bitrate=8845.0kbits/s speed=47.9x

frame= 3851 fps=1185 q=-1.0 size= 188160kB time=00:02:40.57 bitrate=9599.1kbits/s speed=49.4x

frame= 4514 fps=1197 q=-1.0 size= 239360kB time=00:03:08.23 bitrate=10417.2kbits/s speed=49.9x

frame= 4907 fps=1103 q=-1.0 size= 257792kB time=00:03:24.62 bitrate=10320.7kbits/s speed= 46x

frame= 5310 fps=1067 q=-1.0 size= 289792kB time=00:03:41.43 bitrate=10721.1kbits/s speed=44.5x

frame= 6410 fps=1129 q=-1.0 size= 363264kB time=00:04:27.30 bitrate=11132.7kbits/s speed=47.1x

frame= 6664 fps=1068 q=-1.0 size= 381440kB time=00:04:37.90 bitrate=11244.1kbits/s speed=44.6x

frame= 7108 fps=1039 q=-1.0 size= 410880kB time=00:04:56.42 bitrate=11355.2kbits/s speed=43.3x

frame= 7385 fps=993 q=-1.0 size= 429056kB time=00:05:07.97 bitrate=11412.7kbits/s speed=41.4x

frame= 7612 fps=948 q=-1.0 size= 443648kB time=00:05:17.44 bitrate=11448.9kbits/s speed=39.5x

frame= 7843 fps=904 q=-1.0 size= 459008kB time=00:05:27.07 bitrate=11496.4kbits/s speed=37.7x

frame= 8011 fps=862 q=-1.0 size= 467200kB time=00:05:34.08 bitrate=11456.1kbits/s speed= 36x

frame= 8260 fps=834 q=-1.0 size= 489216kB time=00:05:44.47 bitrate=11634.3kbits/s speed=34.8x

frame= 8761 fps=836 q=-1.0 size= 513792kB time=00:06:05.36 bitrate=11519.9kbits/s speed=34.8x

frame= 9044 fps=815 q=-1.0 size= 522240kB time=00:06:17.16 bitrate=11342.9kbits/s speed= 34x

frame= 9771 fps=843 q=-1.0 size= 543488kB time=00:06:47.49 bitrate=10926.0kbits/s speed=35.2x

frame=10183 fps=837 q=-1.0 size= 560128kB time=00:07:04.67 bitrate=10804.9kbits/s speed=34.9x

frame=10764 fps=838 q=-1.0 size= 578304kB time=00:07:28.90 bitrate=10553.3kbits/s speed=34.9x

frame=11124 fps=831 q=-1.0 size= 596736kB time=00:07:43.92 bitrate=10537.2kbits/s speed=34.7x

frame=11698 fps=839 q=-1.0 size= 613632kB time=00:08:07.86 bitrate=10303.9kbits/s speed= 35x

frame=14102 fps=976 q=-1.0 size= 713984kB time=00:09:48.13 bitrate=9945.0kbits/s speed=40.7x

frame=15152 fps=1014 q=-1.0 size= 786944kB time=00:10:31.92 bitrate=10201.6kbits/s speed=42.3x

frame=16403 fps=1062 q=-1.0 size= 890624kB time=00:11:24.10 bitrate=10665.1kbits/s speed=44.3x

frame=17848 fps=1118 q=-1.0 size= 975104kB time=00:12:24.36 bitrate=10731.3kbits/s speed=46.6x

frame=19551 fps=1186 q=-1.0 size= 1088256kB time=00:13:35.39 bitrate=10933.3kbits/s speed=49.5x

frame=21763 fps=1281 q=-1.0 size= 1198592kB time=00:15:07.65 bitrate=10817.8kbits/s speed=53.4x

frame=22868 fps=1302 q=-1.0 size= 1267200kB time=00:15:53.74 bitrate=10884.4kbits/s speed=54.3x

frame=23441 fps=1297 q=-1.0 size= 1305600kB time=00:16:17.64 bitrate=10940.1kbits/s speed=54.1x

frame=24092 fps=1298 q=-1.0 size= 1349120kB time=00:16:44.79 bitrate=10999.2kbits/s speed=54.1x

frame=24828 fps=1300 q=-1.0 size= 1401344kB time=00:17:15.49 bitrate=11086.3kbits/s speed=54.2x

frame=24939 fps=1272 q=-1.0 size= 1404928kB time=00:17:20.12 bitrate=11065.2kbits/s speed= 53x

frame=25249 fps=1254 q=-1.0 size= 1426944kB time=00:17:33.05 bitrate=11100.6kbits/s speed=52.3x

frame=25551 fps=1238 q=-1.0 size= 1449472kB time=00:17:45.64 bitrate=11142.6kbits/s speed=51.6x

frame=25721 fps=1210 q=-1.0 size= 1458688kB time=00:17:52.73 bitrate=11139.3kbits/s speed=50.5x

frame=25904 fps=1182 q=-1.0 size= 1470208kB time=00:18:00.37 bitrate=11148.0kbits/s speed=49.3x

frame=26145 fps=1167 q=-1.0 size= 1484800kB time=00:18:10.42 bitrate=11154.8kbits/s speed=48.7x

frame=26357 fps=1148 q=-1.0 size= 1493760kB time=00:18:19.26 bitrate=11131.9kbits/s speed=47.9x

frame=26494 fps=1107 q=-1.0 size= 1504768kB time=00:18:24.97 bitrate=11155.9kbits/s speed=46.2x

frame=26773 fps=1094 q=-1.0 size= 1519872kB time=00:18:36.61 bitrate=11150.5kbits/s speed=45.6x

frame=27139 fps=1087 q=-1.0 size= 1540608kB time=00:18:51.88 bitrate=11150.2kbits/s speed=45.3x

frame=27457 fps=1076 q=-1.0 size= 1553408kB time=00:19:05.14 bitrate=11112.6kbits/s speed=44.9x

frame=27818 fps=1069 q=-1.0 size= 1575168kB time=00:19:20.20 bitrate=11122.0kbits/s speed=44.6x

frame=28416 fps=1071 q=-1.0 size= 1607936kB time=00:19:45.14 bitrate=11114.4kbits/s speed=44.7x

frame=29676 fps=1098 q=-1.0 size= 1674496kB time=00:20:37.69 bitrate=11083.1kbits/s speed=45.8x

frame=31461 fps=1142 q=-1.0 size= 1757696kB time=00:21:52.14 bitrate=10973.7kbits/s speed=47.6x

frame=33100 fps=1180 q=-1.0 size= 1842176kB time=00:23:00.50 bitrate=10931.6kbits/s speed=49.2x

frame=33822 fps=1184 q=-1.0 size= 1886464kB time=00:23:30.61 bitrate=10955.4kbits/s speed=49.4x

frame=35186 fps=1210 q=-1.0 size= 1966848kB time=00:24:27.50 bitrate=10979.4kbits/s speed=50.5x

frame=36571 fps=1237 q=-1.0 size= 2045440kB time=00:25:25.27 bitrate=10985.7kbits/s speed=51.6x

frame=38217 fps=1271 q=-1.0 size= 2142976kB time=00:26:33.92 bitrate=11013.8kbits/s speed= 53x

frame=39502 fps=1291 q=-1.0 size= 2237952kB time=00:27:27.52 bitrate=11127.8kbits/s speed=53.8x

frame=40597 fps=1303 q=-1.0 size= 2325504kB time=00:28:13.19 bitrate=11251.3kbits/s speed=54.3x

frame=41347 fps=1304 q=-1.0 size= 2381568kB time=00:28:44.47 bitrate=11313.5kbits/s speed=54.4x

frame=42327 fps=1314 q=-1.0 size= 2445312kB time=00:29:25.34 bitrate=11347.3kbits/s speed=54.8x

frame=43460 fps=1329 q=-1.0 size= 2516736kB time=00:30:12.60 bitrate=11374.3kbits/s speed=55.4x

frame=44874 fps=1351 q=-1.0 size= 2586624kB time=00:31:11.57 bitrate=11321.8kbits/s speed=56.3x

frame=45595 fps=1352 q=-1.0 size= 2631936kB time=00:31:41.65 bitrate=11338.0kbits/s speed=56.4x

frame=45696 fps=1330 q=-1.0 size= 2634752kB time=00:31:45.86 bitrate=11325.0kbits/s speed=55.5x

frame=45983 fps=1319 q=-1.0 size= 2658816kB time=00:31:57.83 bitrate=11357.1kbits/s speed= 55x

frame=46541 fps=1315 q=-1.0 size= 2706944kB time=00:32:21.10 bitrate=11424.0kbits/s speed=54.8x

frame=46870 fps=1305 q=-1.0 size= 2734080kB time=00:32:34.82 bitrate=11457.6kbits/s speed=54.4x

frame=47671 fps=1309 q=-1.0 size= 2769408kB time=00:33:08.23 bitrate=11410.6kbits/s speed=54.6x

frame=47894 fps=1297 q=-1.0 size= 2783232kB time=00:33:17.53 bitrate=11414.2kbits/s speed=54.1x

frame=48218 fps=1287 q=-1.0 size= 2800384kB time=00:33:31.05 bitrate=11407.3kbits/s speed=53.7x

frame=48700 fps=1282 q=-1.0 size= 2822656kB time=00:33:51.15 bitrate=11384.3kbits/s speed=53.5x

frame=49020 fps=1272 q=-1.0 size= 2833408kB time=00:34:04.50 bitrate=11353.0kbits/s speed= 53x

frame=49369 fps=1254 q=-1.0 size= 2852096kB time=00:34:19.05 bitrate=11347.1kbits/s speed=52.3x

frame=49957 fps=1253 q=-1.0 size= 2880256kB time=00:34:43.58 bitrate=11324.3kbits/s speed=52.3x

frame=50293 fps=1246 q=-1.0 size= 2888192kB time=00:34:57.59 bitrate=11279.6kbits/s speed= 52x

frame=50546 fps=1237 q=-1.0 size= 2902528kB time=00:35:08.14 bitrate=11278.9kbits/s speed=51.6x

frame=51062 fps=1232 q=-1.0 size= 2936320kB time=00:35:29.67 bitrate=11294.9kbits/s speed=51.4x

frame=51406 fps=1223 q=-1.0 size= 2950144kB time=00:35:44.01 bitrate=11272.1kbits/s speed= 51x

frame=51768 fps=1215 q=-1.0 size= 2965504kB time=00:35:59.11 bitrate=11251.6kbits/s speed=50.7x

frame=52076 fps=1208 q=-1.0 size= 2978048kB time=00:36:11.96 bitrate=11232.3kbits/s speed=50.4x

frame=52493 fps=1203 q=-1.0 size= 3002624kB time=00:36:29.35 bitrate=11235.0kbits/s speed=50.2x

frame=52810 fps=1195 q=-1.0 size= 3023616kB time=00:36:42.57 bitrate=11245.7kbits/s speed=49.8x

frame=52998 fps=1184 q=-1.0 size= 3035392kB time=00:36:50.41 bitrate=11249.4kbits/s speed=49.4x

frame=53162 fps=1175 q=-1.0 size= 3048192kB time=00:36:57.25 bitrate=11262.0kbits/s speed= 49x

frame=53307 fps=1162 q=-1.0 size= 3055872kB time=00:37:03.30 bitrate=11259.7kbits/s speed=48.5x

frame=53611 fps=1155 q=-1.0 size= 3077632kB time=00:37:15.98 bitrate=11275.6kbits/s speed=48.2x

frame=54959 fps=1172 q=-1.0 size= 3141376kB time=00:38:12.20 bitrate=11226.8kbits/s speed=48.9x

frame=56792 fps=1198 q=-1.0 size= 3239168kB time=00:39:28.65 bitrate=11202.7kbits/s speed= 50x

frame=57726 fps=1205 q=-1.0 size= 3297792kB time=00:40:07.61 bitrate=11220.9kbits/s speed=50.3x

frame=59119 fps=1221 q=-1.0 size= 3403264kB time=00:41:05.71 bitrate=11306.9kbits/s speed=50.9x

frame=60742 fps=1241 q=-1.0 size= 3494144kB time=00:42:13.40 bitrate=11298.6kbits/s speed=51.8x

frame=61913 fps=1252 q=-1.0 size= 3545344kB time=00:43:02.24 bitrate=11247.4kbits/s speed=52.2x

frame=63059 fps=1262 q=-1.0 size= 3609088kB time=00:43:50.04 bitrate=11241.5kbits/s speed=52.7x

frame=64994 fps=1288 q=-1.0 size= 3712256kB time=00:45:10.75 bitrate=11218.6kbits/s speed=53.7x

frame=66704 fps=1309 q=-1.0 size= 3794688kB time=00:46:22.07 bitrate=11173.7kbits/s speed=54.6x

frame=67769 fps=1317 q=-1.0 size= 3891968kB time=00:47:06.49 bitrate=11280.1kbits/s speed=54.9x

frame=68489 fps=1318 q=-1.0 size= 3940352kB time=00:47:36.52 bitrate=11300.2kbits/s speed= 55x

frame=69491 fps=1324 q=-1.0 size= 4030976kB time=00:48:18.31 bitrate=11393.4kbits/s speed=55.2x

frame=70500 fps=1331 q=-1.0 size= 4116224kB time=00:49:00.39 bitrate=11467.9kbits/s speed=55.5x

frame=70829 fps=1324 q=-1.0 size= 4145152kB time=00:49:14.11 bitrate=11494.8kbits/s speed=55.2x

frame=71129 fps=1317 q=-1.0 size= 4171776kB time=00:49:26.63 bitrate=11519.9kbits/s speed=54.9x

frame=71532 fps=1312 q=-1.0 size= 4203776kB time=00:49:43.43 bitrate=11542.8kbits/s speed=54.7x

frame=71866 fps=1306 q=-1.0 size= 4230656kB time=00:49:57.37 bitrate=11562.6kbits/s speed=54.5x

frame=72512 fps=1306 q=-1.0 size= 4270080kB time=00:50:24.31 bitrate=11566.4kbits/s speed=54.5x

frame=73398 fps=1310 q=-1.0 size= 4321280kB time=00:51:01.26 bitrate=11563.8kbits/s speed=54.6x

frame=74321 fps=1314 q=-1.0 size= 4360448kB time=00:51:39.76 bitrate=11523.7kbits/s speed=54.8x

frame=74694 fps=1307 q=-1.0 size= 4376064kB time=00:51:55.32 bitrate=11507.2kbits/s speed=54.5x

frame=75006 fps=1298 q=-1.0 size= 4390656kB time=00:52:08.33 bitrate=11497.6kbits/s speed=54.1x

frame=75339 fps=1288 q=-1.0 size= 4405248kB time=00:52:22.22 bitrate=11484.8kbits/s speed=53.7x

frame=75600 fps=1278 q=-1.0 size= 4414464kB time=00:52:33.10 bitrate=11469.1kbits/s speed=53.3x

frame=75813 fps=1270 q=-1.0 size= 4425216kB time=00:52:41.99 bitrate=11464.7kbits/s speed= 53x

frame=76023 fps=1262 q=-1.0 size= 4435200kB time=00:52:50.75 bitrate=11458.8kbits/s speed=52.6x

frame=76354 fps=1256 q=-1.0 size= 4460800kB time=00:53:04.55 bitrate=11475.0kbits/s speed=52.4x

frame=76548 fps=1249 q=-1.0 size= 4471040kB time=00:53:12.64 bitrate=11472.2kbits/s speed=52.1x

frame=76980 fps=1244 q=-1.0 size= 4501248kB time=00:53:30.66 bitrate=11484.9kbits/s speed=51.9x

frame=77195 fps=1237 q=-1.0 size= 4513024kB time=00:53:39.63 bitrate=11482.9kbits/s speed=51.6x

frame=77856 fps=1237 q=-1.0 size= 4548352kB time=00:54:07.20 bitrate=11474.5kbits/s speed=51.6x

frame=78193 fps=1232 q=-1.0 size= 4558848kB time=00:54:21.25 bitrate=11451.4kbits/s speed=51.4x

frame=78530 fps=1228 q=-1.0 size= 4572160kB time=00:54:35.31 bitrate=11435.6kbits/s speed=51.2x

frame=78880 fps=1222 q=-1.0 size= 4585728kB time=00:54:49.91 bitrate=11418.6kbits/s speed= 51x

frame=79215 fps=1214 q=-1.0 size= 4602880kB time=00:55:03.88 bitrate=11412.9kbits/s speed=50.6x

frame=79589 fps=1211 q=-1.0 size= 4631296kB time=00:55:19.48 bitrate=11429.4kbits/s speed=50.5x

frame=82195 fps=1241 q=-1.0 size= 4759808kB time=00:57:08.17 bitrate=11374.1kbits/s speed=51.7x

frame=83533 fps=1251 q=-1.0 size= 4835584kB time=00:58:03.98 bitrate=11370.1kbits/s speed=52.2x

frame=85220 fps=1267 q=-1.0 size= 4942336kB time=00:59:14.34 bitrate=11391.0kbits/s speed=52.9x

frame=86671 fps=1279 q=-1.0 size= 4999424kB time=01:00:14.86 bitrate=11329.7kbits/s speed=53.4x

frame=88940 fps=1303 q=-1.0 size= 5129216kB time=01:01:49.49 bitrate=11327.3kbits/s speed=54.3x

frame=90861 fps=1321 q=-1.0 size= 5216000kB time=01:03:09.62 bitrate=11275.4kbits/s speed=55.1x

frame=92385 fps=1334 q=-1.0 size= 5303808kB time=01:04:13.18 bitrate=11276.1kbits/s speed=55.6x

frame=93831 fps=1345 q=-1.0 size= 5411840kB time=01:05:13.49 bitrate=11328.4kbits/s speed=56.1x

frame=94990 fps=1352 q=-1.0 size= 5467136kB time=01:06:01.83 bitrate=11304.6kbits/s speed=56.4x

frame=95783 fps=1353 q=-1.0 size= 5523968kB time=01:06:34.90 bitrate=11327.5kbits/s speed=56.4x

frame=97387 fps=1366 q=-1.0 size= 5637120kB time=01:07:41.80 bitrate=11369.1kbits/s speed= 57x

frame=97713 fps=1361 q=-1.0 size= 5664256kB time=01:07:55.40 bitrate=11385.8kbits/s speed=56.7x

frame=98417 fps=1361 q=-1.0 size= 5721088kB time=01:08:24.76 bitrate=11417.7kbits/s speed=56.8x

frame=99089 fps=1361 q=-1.0 size= 5762048kB time=01:08:52.79 bitrate=11421.5kbits/s speed=56.7x

frame=99450 fps=1356 q=-1.0 size= 5792768kB time=01:09:07.85 bitrate=11440.7kbits/s speed=56.6x

frame=99757 fps=1351 q=-1.0 size= 5824256kB time=01:09:20.65 bitrate=11467.5kbits/s speed=56.3x

frame=100385 fps=1350 q=-1.0 size= 5868544kB time=01:09:46.85 bitrate=11482.4kbits/s speed=56.3x

frame=100551 fps=1342 q=-1.0 size= 5879040kB time=01:09:53.77 bitrate=11484.0kbits/s speed= 56x

frame=100728 fps=1335 q=-1.0 size= 5898752kB time=01:10:01.15 bitrate=11502.2kbits/s speed=55.7x

frame=100954 fps=1322 q=-1.0 size= 5914368kB time=01:10:10.58 bitrate=11506.8kbits/s speed=55.1x

frame=101068 fps=1311 q=-1.0 size= 5923840kB time=01:10:15.33 bitrate=11512.3kbits/s speed=54.7x

frame=101153 fps=1303 q=-1.0 size= 5928960kB time=01:10:18.88 bitrate=11512.5kbits/s speed=54.3x

frame=101278 fps=1295 q=-1.0 size= 5934592kB time=01:10:24.09 bitrate=11509.3kbits/s speed= 54x

frame=101489 fps=1288 q=-1.0 size= 5957120kB time=01:10:32.89 bitrate=11528.9kbits/s speed=53.7x

frame=101781 fps=1282 q=-1.0 size= 5979648kB time=01:10:45.07 bitrate=11539.3kbits/s speed=53.5x

frame=101955 fps=1276 q=-1.0 size= 5989888kB time=01:10:52.33 bitrate=11539.4kbits/s speed=53.2x

frame=102178 fps=1268 q=-1.0 size= 6007040kB time=01:11:01.63 bitrate=11547.1kbits/s speed=52.9x

frame=102388 fps=1260 q=-1.0 size= 6020096kB time=01:11:10.39 bitrate=11548.5kbits/s speed=52.6x

frame=102652 fps=1254 q=-1.0 size= 6036736kB time=01:11:21.40 bitrate=11550.6kbits/s speed=52.3x

frame=102803 fps=1246 q=-1.0 size= 6041856kB time=01:11:27.70 bitrate=11543.5kbits/s speed= 52x

frame=102964 fps=1239 q=-1.0 size= 6051840kB time=01:11:34.41 bitrate=11544.5kbits/s speed=51.7x

frame=103377 fps=1236 q=-1.0 size= 6077952kB time=01:11:51.64 bitrate=11547.9kbits/s speed=51.6x

frame=103761 fps=1233 q=-1.0 size= 6093824kB time=01:12:07.65 bitrate=11535.3kbits/s speed=51.4x

frame=104750 fps=1238 q=-1.0 size= 6137344kB time=01:12:48.90 bitrate=11507.9kbits/s speed=51.6x

frame=106849 fps=1255 q=-1.0 size= 6230272kB time=01:14:16.45 bitrate=11452.7kbits/s speed=52.3x

frame=107180 fps=1251 q=-1.0 size= 6246656kB time=01:14:30.25 bitrate=11447.3kbits/s speed=52.2x

frame=107641 fps=1247 q=-1.0 size= 6269184kB time=01:14:49.48 bitrate=11439.4kbits/s speed= 52x

frame=107938 fps=1242 q=-1.0 size= 6288384kB time=01:15:01.87 bitrate=11442.9kbits/s speed=51.8x

frame=109818 fps=1256 q=-1.0 size= 6360832kB time=01:16:20.28 bitrate=11376.6kbits/s speed=52.4x

frame=110728 fps=1258 q=-1.0 size= 6408704kB time=01:16:58.23 bitrate=11368.0kbits/s speed=52.5x

frame=112697 fps=1273 q=-1.0 size= 6537216kB time=01:18:20.36 bitrate=11393.3kbits/s speed=53.1x

frame=114998 fps=1292 q=-1.0 size= 6656000kB time=01:19:56.33 bitrate=11368.3kbits/s speed=53.9x

frame=116789 fps=1304 q=-1.0 size= 6758912kB time=01:21:11.03 bitrate=11367.0kbits/s speed=54.4x

frame=118977 fps=1321 q=-1.0 size= 6842624kB time=01:22:42.29 bitrate=11296.1kbits/s speed=55.1x

frame=121504 fps=1342 q=-1.0 size= 6946304kB time=01:24:27.68 bitrate=11228.8kbits/s speed= 56x

frame=122620 fps=1347 q=-1.0 size= 7019520kB time=01:25:14.23 bitrate=11243.9kbits/s speed=56.2x

frame=124125 fps=1356 q=-1.0 size= 7104000kB time=01:26:17.00 bitrate=11241.2kbits/s speed=56.5x

frame=125545 fps=1364 q=-1.0 size= 7189504kB time=01:27:16.23 bitrate=11247.9kbits/s speed=56.9x

frame=127394 fps=1376 q=-1.0 size= 7274240kB time=01:28:33.35 bitrate=11215.3kbits/s speed=57.4x

frame=128464 fps=1379 q=-1.0 size= 7338240kB time=01:29:17.97 bitrate=11219.7kbits/s speed=57.5x

frame=129073 fps=1378 q=-1.0 size= 7377408kB time=01:29:43.37 bitrate=11226.4kbits/s speed=57.5x

frame=129447 fps=1375 q=-1.0 size= 7406080kB time=01:29:58.97 bitrate=11237.4kbits/s speed=57.3x

frame=130266 fps=1376 q=-1.0 size= 7462656kB time=01:30:33.13 bitrate=11252.1kbits/s speed=57.4x

frame=131171 fps=1378 q=-1.0 size= 7512832kB time=01:31:10.88 bitrate=11249.6kbits/s speed=57.5x

frame=131529 fps=1373 q=-1.0 size= 7529728kB time=01:31:25.81 bitrate=11244.2kbits/s speed=57.3x

frame=132350 fps=1374 q=-1.0 size= 7568896kB time=01:32:00.05 bitrate=11232.6kbits/s speed=57.3x

frame=133183 fps=1374 q=-1.0 size= 7594240kB time=01:32:34.80 bitrate=11199.7kbits/s speed=57.3x

frame=133299 fps=1367 q=-1.0 size= 7598592kB time=01:32:39.63 bitrate=11196.4kbits/s speed= 57x

frame=133629 fps=1362 q=-1.0 size= 7613696kB time=01:32:53.40 bitrate=11190.9kbits/s speed=56.8x

frame=133912 fps=1358 q=-1.0 size= 7627264kB time=01:33:05.20 bitrate=11187.2kbits/s speed=56.6x

frame=134174 fps=1352 q=-1.0 size= 7640064kB time=01:33:16.13 bitrate=11184.0kbits/s speed=56.4x

frame=134500 fps=1347 q=-1.0 size= 7659776kB time=01:33:29.73 bitrate=11185.7kbits/s speed=56.2x

frame=134726 fps=1343 q=-1.0 size= 7671296kB time=01:33:39.15 bitrate=11183.8kbits/s speed= 56x

frame=135111 fps=1339 q=-1.0 size= 7706112kB time=01:33:55.21 bitrate=11202.5kbits/s speed=55.8x

frame=135561 fps=1336 q=-1.0 size= 7714816kB time=01:34:13.98 bitrate=11177.9kbits/s speed=55.7x

frame=135872 fps=1331 q=-1.0 size= 7738112kB time=01:34:26.95 bitrate=11186.0kbits/s speed=55.5x

frame=136035 fps=1324 q=-1.0 size= 7747584kB time=01:34:33.75 bitrate=11186.3kbits/s speed=55.2x

frame=136234 fps=1319 q=-1.0 size= 7759360kB time=01:34:42.05 bitrate=11186.9kbits/s speed= 55x

frame=136498 fps=1315 q=-1.0 size= 7770624kB time=01:34:53.06 bitrate=11181.5kbits/s speed=54.8x

frame=136848 fps=1311 q=-1.0 size= 7790336kB time=01:35:07.66 bitrate=11181.2kbits/s speed=54.7x

frame=137095 fps=1307 q=-1.0 size= 7792128kB time=01:35:17.96 bitrate=11163.6kbits/s speed=54.5x

frame=137291 fps=1302 q=-1.0 size= 7802624kB time=01:35:26.13 bitrate=11162.7kbits/s speed=54.3x

frame=137901 fps=1302 q=-1.0 size= 7832064kB time=01:35:51.58 bitrate=11155.2kbits/s speed=54.3x

frame=138452 fps=1301 q=-1.0 size= 7855616kB time=01:36:14.56 bitrate=11144.3kbits/s speed=54.3x

frame=139073 fps=1300 q=-1.0 size= 7894784kB time=01:36:40.46 bitrate=11149.8kbits/s speed=54.2x

frame=140052 fps=1303 q=-1.0 size= 7965952kB time=01:37:21.29 bitrate=11171.7kbits/s speed=54.4x

frame=140868 fps=1305 q=-1.0 size= 8015872kB time=01:37:55.32 bitrate=11176.6kbits/s speed=54.4x

frame=142032 fps=1309 q=-1.0 size= 8077312kB time=01:38:43.87 bitrate=11169.9kbits/s speed=54.6x

frame=143080 fps=1313 q=-1.0 size= 8130048kB time=01:39:27.58 bitrate=11160.5kbits/s speed=54.8x

frame=144052 fps=1316 q=-1.0 size= 8188672kB time=01:40:08.12 bitrate=11165.1kbits/s speed=54.9x

frame=145185 fps=1320 q=-1.0 size= 8281344kB time=01:40:55.38 bitrate=11203.4kbits/s speed= 55x

frame=146289 fps=1324 q=-1.0 size= 8374528kB time=01:41:41.42 bitrate=11243.9kbits/s speed=55.2x

frame=147869 fps=1332 q=-1.0 size= 8462080kB time=01:42:47.32 bitrate=11240.1kbits/s speed=55.6x

frame=149752 fps=1343 q=-1.0 size= 8561664kB time=01:44:05.86 bitrate=11229.4kbits/s speed= 56x

frame=151362 fps=1351 q=-1.0 size= 8629504kB time=01:45:13.01 bitrate=11198.0kbits/s speed=56.4x

frame=152723 fps=1357 q=-1.0 size= 8709632kB time=01:46:09.78 bitrate=11201.2kbits/s speed=56.6x

frame=153498 fps=1358 q=-1.0 size= 8759296kB time=01:46:42.10 bitrate=11208.2kbits/s speed=56.6x

frame=155007 fps=1365 q=-1.0 size= 8853248kB time=01:47:45.04 bitrate=11218.1kbits/s speed=56.9x

frame=155490 fps=1363 q=-1.0 size= 8894464kB time=01:48:05.18 bitrate=11235.4kbits/s speed=56.8x

frame=156528 fps=1366 q=-1.0 size= 8954368kB time=01:48:48.48 bitrate=11236.0kbits/s speed= 57x

frame=157053 fps=1365 q=-1.0 size= 8968448kB time=01:49:10.37 bitrate=11216.1kbits/s speed=56.9x

frame=158079 fps=1368 q=-1.0 size= 9011712kB time=01:49:53.17 bitrate=11197.0kbits/s speed= 57x

frame=158592 fps=1366 q=-1.0 size= 9033728kB time=01:50:14.56 bitrate=11188.1kbits/s speed= 57x

frame=158806 fps=1362 q=-1.0 size= 9045248kB time=01:50:23.49 bitrate=11187.3kbits/s speed=56.8x

frame=159128 fps=1359 q=-1.0 size= 9062656kB time=01:50:36.92 bitrate=11186.1kbits/s speed=56.7x

frame=159590 fps=1355 q=-1.0 size= 9087488kB time=01:50:56.19 bitrate=11184.3kbits/s speed=56.5x

frame=160063 fps=1354 q=-1.0 size= 9115392kB time=01:51:15.92 bitrate=11185.5kbits/s speed=56.5x

frame=160468 fps=1350 q=-1.0 size= 9132800kB time=01:51:32.81 bitrate=11178.5kbits/s speed=56.3x

frame=160765 fps=1347 q=-1.0 size= 9148928kB time=01:51:45.19 bitrate=11177.6kbits/s speed=56.2x

frame=161015 fps=1344 q=-1.0 size= 9163008kB time=01:51:55.62 bitrate=11177.4kbits/s speed= 56x

frame=161189 fps=1339 q=-1.0 size= 9170432kB time=01:52:02.88 bitrate=11174.4kbits/s speed=55.9x

frame=161505 fps=1336 q=-1.0 size= 9188864kB time=01:52:16.06 bitrate=11175.0kbits/s speed=55.7x

frame=161763 fps=1331 q=-1.0 size= 9200896kB time=01:52:26.82 bitrate=11171.7kbits/s speed=55.5x

frame=161965 fps=1327 q=-1.0 size= 9213952kB time=01:52:35.24 bitrate=11173.6kbits/s speed=55.3x

frame=162240 fps=1323 q=-1.0 size= 9227776kB time=01:52:46.71 bitrate=11171.4kbits/s speed=55.2x

frame=162463 fps=1319 q=-1.0 size= 9243392kB time=01:52:56.02 bitrate=11175.0kbits/s speed= 55x

frame=162722 fps=1314 q=-1.0 size= 9268224kB time=01:53:06.82 bitrate=11187.2kbits/s speed=54.8x

frame=163131 fps=1312 q=-1.0 size= 9296896kB time=01:53:23.88 bitrate=11193.6kbits/s speed=54.7x

frame=163382 fps=1309 q=-1.0 size= 9310464kB time=01:53:34.35 bitrate=11192.8kbits/s speed=54.6x

frame=165059 fps=1317 q=-1.0 size= 9411584kB time=01:54:44.29 bitrate=11199.4kbits/s speed=54.9x

frame=166241 fps=1321 q=-1.0 size= 9481472kB time=01:55:33.59 bitrate=11202.3kbits/s speed=55.1x

frame=167723 fps=1328 q=-1.0 size= 9570816kB time=01:56:35.40 bitrate=11207.9kbits/s speed=55.4x

frame=168413 fps=1328 q=-1.0 size= 9627136kB time=01:57:04.18 bitrate=11227.7kbits/s speed=55.4x

frame=169466 fps=1331 q=-1.0 size= 9709824kB time=01:57:48.10 bitrate=11253.8kbits/s speed=55.5x

frame=170275 fps=1331 q=-1.0 size= 9781504kB time=01:58:21.84 bitrate=11283.0kbits/s speed=55.5x

frame=171247 fps=1333 q=-1.0 size= 9852672kB time=01:59:02.38 bitrate=11300.6kbits/s speed=55.6x

frame=172212 fps=1335 q=-1.0 size= 9925120kB time=01:59:42.63 bitrate=11319.9kbits/s speed=55.7x

frame=173042 fps=1336 q=-1.0 size= 9992960kB time=02:00:17.25 bitrate=11342.6kbits/s speed=55.7x

frame=174015 fps=1339 q=-1.0 size=10070016kB time=02:00:57.83 bitrate=11366.1kbits/s speed=55.8x

frame=175242 fps=1343 q=-1.0 size=10176000kB time=02:01:49.01 bitrate=11405.3kbits/s speed= 56x

frame=176151 fps=1345 q=-1.0 size=10263808kB time=02:02:26.92 bitrate=11444.4kbits/s speed=56.1x

frame=176788 fps=1342 q=-1.0 size=10318336kB time=02:02:53.49 bitrate=11463.7kbits/s speed= 56x

frame=177362 fps=1341 q=-1.0 size=10373120kB time=02:03:17.43 bitrate=11487.3kbits/s speed=55.9x

frame=177500 fps=1336 q=-1.0 size=10385664kB time=02:03:23.18 bitrate=11492.3kbits/s speed=55.7x

frame=177812 fps=1333 q=-1.0 size=10413056kB time=02:03:36.20 bitrate=11502.4kbits/s speed=55.6x

frame=178120 fps=1329 q=-1.0 size=10440192kB time=02:03:49.04 bitrate=11512.4kbits/s speed=55.5x

frame=178284 fps=1324 q=-1.0 size=10454016kB time=02:03:55.88 bitrate=11517.0kbits/s speed=55.2x

frame=178444 fps=1319 q=-1.0 size=10469376kB time=02:04:02.56 bitrate=11523.6kbits/s speed= 55x

frame=178640 fps=1315 q=-1.0 size=10488832kB time=02:04:10.73 bitrate=11532.4kbits/s speed=54.8x

frame=178804 fps=1311 q=-1.0 size=10508032kB time=02:04:17.57 bitrate=11542.9kbits/s speed=54.7x

frame=178999 fps=1307 q=-1.0 size=10526720kB time=02:04:25.70 bitrate=11550.8kbits/s speed=54.5x

frame=179084 fps=1302 q=-1.0 size=10536960kB time=02:04:29.25 bitrate=11556.5kbits/s speed=54.3x

frame=179254 fps=1299 q=-1.0 size=10551296kB time=02:04:36.34 bitrate=11561.3kbits/s speed=54.2x

frame=179429 fps=1292 q=-1.0 size=10572032kB time=02:04:43.64 bitrate=11572.7kbits/s speed=53.9x

frame=179560 fps=1289 q=-1.0 size=10582272kB time=02:04:49.10 bitrate=11575.5kbits/s speed=53.7x

frame=179699 fps=1284 q=-1.0 size=10592768kB time=02:04:54.90 bitrate=11578.0kbits/s speed=53.6x

frame=180001 fps=1282 q=-1.0 size=10630144kB time=02:05:07.50 bitrate=11599.4kbits/s speed=53.5x

frame=180151 fps=1278 q=-1.0 size=10637312kB time=02:05:13.75 bitrate=11597.5kbits/s speed=53.3x

frame=180324 fps=1274 q=-1.0 size=10652928kB time=02:05:20.97 bitrate=11603.4kbits/s speed=53.1x

frame=180552 fps=1270 q=-1.0 size=10673920kB time=02:05:30.48 bitrate=11611.6kbits/s speed= 53x

frame=181021 fps=1269 q=-1.0 size=10708992kB time=02:05:50.04 bitrate=11619.5kbits/s speed=52.9x

frame=182151 fps=1273 q=-1.0 size=10777088kB time=02:06:37.17 bitrate=11620.9kbits/s speed=53.1x

frame=183258 fps=1276 q=-1.0 size=10837504kB time=02:07:23.34 bitrate=11615.4kbits/s speed=53.2x

frame=184414 fps=1280 q=-1.0 size=10909440kB time=02:08:11.55 bitrate=11619.2kbits/s speed=53.4x

frame=185809 fps=1285 q=-1.0 size=11010560kB time=02:09:09.74 bitrate=11638.9kbits/s speed=53.6x

frame=186705 fps=1286 q=-1.0 size=11091968kB time=02:09:47.11 bitrate=11668.7kbits/s speed=53.7x

frame=187844 fps=1290 q=-1.0 size=11198720kB time=02:10:34.61 bitrate=11709.6kbits/s speed=53.8x

frame=188047 fps=1286 q=-1.0 size=11219456kB time=02:10:43.08 bitrate=11718.6kbits/s speed=53.6x

frame=188212 fps=1282 q=-1.0 size=11251968kB time=02:10:49.96 bitrate=11742.2kbits/s speed=53.4x

frame=188518 fps=1278 q=-1.0 size=11266048kB time=02:11:02.73 bitrate=11737.8kbits/s speed=53.3x

frame=188688 fps=1273 q=-1.0 size=11283968kB time=02:11:09.82 bitrate=11745.9kbits/s speed=53.1x

frame=188874 fps=1270 q=-1.0 size=11293952kB time=02:11:17.57 bitrate=11744.7kbits/s speed= 53x

frame=189043 fps=1266 q=-1.0 size=11296000kB time=02:11:24.62 bitrate=11736.4kbits/s speed=52.8x

frame=189259 fps=1263 q=-1.0 size=11314432kB time=02:11:33.63 bitrate=11742.1kbits/s speed=52.7x

frame=190021 fps=1264 q=-1.0 size=11375360kB time=02:12:05.41 bitrate=11758.0kbits/s speed=52.7x

frame=191617 fps=1270 q=-1.0 size=11484672kB time=02:13:11.98 bitrate=11772.1kbits/s speed= 53x

frame=193549 fps=1279 q=-1.0 size=11584256kB time=02:14:32.56 bitrate=11755.6kbits/s speed=53.3x

frame=195610 fps=1288 q=-1.0 size=11703552kB time=02:15:58.52 bitrate=11751.6kbits/s speed=53.7x

frame=197662 fps=1297 q=-1.0 size=11806208kB time=02:17:24.11 bitrate=11731.6kbits/s speed=54.1x

frame=199585 fps=1305 q=-1.0 size=11894784kB time=02:18:44.31 bitrate=11705.7kbits/s speed=54.4x

frame=201622 fps=1314 q=-1.0 size=11986688kB time=02:20:09.27 bitrate=11677.0kbits/s speed=54.8x

frame=203213 fps=1321 q=-1.0 size=12082944kB time=02:21:15.63 bitrate=11678.6kbits/s speed=55.1x

frame=204431 fps=1324 q=-1.0 size=12167936kB time=02:22:06.43 bitrate=11690.7kbits/s speed=55.2x

frame=206264 fps=1331 q=-1.0 size=12255488kB time=02:23:22.88 bitrate=11670.1kbits/s speed=55.5x

frame=207420 fps=1334 q=-1.0 size=12325888kB time=02:24:11.10 bitrate=11671.8kbits/s speed=55.6x

frame=210239 fps=1347 q=-1.0 size=12390144kB time=02:26:08.67 bitrate=11575.3kbits/s speed=56.2x

frame=213331 fps=1363 q=-1.0 size=12431104kB time=02:28:17.63 bitrate=11445.2kbits/s speed=56.8x

frame=215272 fps=1370 q=-1.0 size=12469504kB time=02:29:38.59 bitrate=11377.1kbits/s speed=57.2x

frame=218432 fps=1385 q=-1.0 size=12536576kB time=02:31:50.39 bitrate=11272.8kbits/s speed=57.8x

frame=220421 fps=1394 q=-1.0 size=12576512kB time=02:33:13.35 bitrate=11206.7kbits/s speed=58.1x

frame=221713 fps=1397 q=-1.0 size=12604672kB time=02:34:07.23 bitrate=11166.3kbits/s speed=58.3x

frame=221817 fps=1397 q=-1.0 Lsize=12615643kB time=02:34:11.61 bitrate=11170.7kbits/s speed=58.2x

video:11164076kB audio:1445570kB subtitle:107kB other streams:0kB global headers:0kB muxing overhead: 0.046713%


RUNNER:

Video Encoder H264 - libx264 (CPU) [Pass #1]

Executing plugin runner... Please wait

Runner did not request to execute a command